<svg width="515" height="400" viewBox="0 0 515 400" fill="none" xmlns="http://www.w3.org/2000/svg">
<path d="M327.75 82.7262C327.75 83.8971 326.804 84.8435 325.65 84.8435C324.48 84.8435 323.534 83.8971 323.534 82.7262C323.534 81.5552 324.48 80.6089 325.65 80.6089C326.804 80.6089 327.75 81.5552 327.75 82.7262Z" fill="#F9A828"/>
<path d="M337.335 82.7262C337.335 83.8971 336.389 84.8435 335.219 84.8435C334.049 84.8435 333.104 83.8971 333.104 82.7262C333.104 81.5552 334.049 80.6089 335.219 80.6089C336.389 80.6089 337.335 81.5552 337.335 82.7262Z" fill="#F9A828"/>
<path d="M346.904 82.7262C346.904 83.8971 345.958 84.8435 344.804 84.8435C343.634 84.8435 342.688 83.8971 342.688 82.7262C342.688 81.5552 343.634 80.6089 344.804 80.6089C345.958 80.6089 346.904 81.5552 346.904 82.7262Z" fill="#F9A828"/>
<path d="M356.488 82.7262C356.488 83.8971 355.543 84.8435 354.373 84.8435C353.203 84.8435 352.257 83.8971 352.257 82.7262C352.257 81.5552 353.203 80.6089 354.373 80.6089C355.543 80.6089 356.488 81.5552 356.488 82.7262Z" fill="#F9A828"/>
<path d="M327.75 90.3292C327.75 91.5001 326.804 92.4465 325.65 92.4465C324.48 92.4465 323.534 91.5001 323.534 90.3292C323.534 89.1583 324.48 88.2119 325.65 88.2119C326.804 88.2119 327.75 89.1583 327.75 90.3292Z" fill="#F9A828"/>
<path d="M337.335 90.3292C337.335 91.5001 336.389 92.4465 335.219 92.4465C334.049 92.4465 333.104 91.5001 333.104 90.3292C333.104 89.1583 334.049 88.2119 335.219 88.2119C336.389 88.2119 337.335 89.1583 337.335 90.3292Z" fill="#F9A828"/>
<path d="M346.904 90.3292C346.904 91.5001 345.958 92.4465 344.804 92.4465C343.634 92.4465 342.688 91.5001 342.688 90.3292C342.688 89.1583 343.634 88.2119 344.804 88.2119C345.958 88.2119 346.904 89.1583 346.904 90.3292Z" fill="#F9A828"/>
<path d="M356.489 90.3292C356.489 91.5001 355.544 92.4465 354.374 92.4465C353.204 92.4465 352.258 91.5001 352.258 90.3292C352.258 89.1583 353.204 88.2119 354.374 88.2119C355.544 88.2119 356.489 89.1583 356.489 90.3292Z" fill="#F9A828"/>
<path d="M327.75 97.932C327.75 99.1029 326.804 100.049 325.65 100.049C324.48 100.049 323.534 99.1029 323.534 97.932C323.534 96.7771 324.48 95.8147 325.65 95.8147C326.804 95.8147 327.75 96.7771 327.75 97.932Z" fill="#F9A828"/>
<path d="M337.335 97.932C337.335 99.1029 336.389 100.049 335.219 100.049C334.049 100.049 333.104 99.1029 333.104 97.932C333.104 96.7771 334.049 95.8147 335.219 95.8147C336.389 95.8147 337.335 96.7771 337.335 97.932Z" fill="#F9A828"/>
<path d="M346.904 97.932C346.904 99.1029 345.958 100.049 344.804 100.049C343.634 100.049 342.688 99.1029 342.688 97.932C342.688 96.7771 343.634 95.8147 344.804 95.8147C345.958 95.8147 346.904 96.7771 346.904 97.932Z" fill="#F9A828"/>
<path d="M356.489 97.932C356.489 99.1029 355.544 100.049 354.374 100.049C353.204 100.049 352.258 99.1029 352.258 97.932C352.258 96.7771 353.204 95.8147 354.374 95.8147C355.544 95.8147 356.489 96.7771 356.489 97.932Z" fill="#F9A828"/>
<path d="M327.75 105.551C327.75 106.706 326.804 107.652 325.65 107.652C324.48 107.652 323.534 106.706 323.534 105.551C323.534 104.38 324.48 103.434 325.65 103.434C326.804 103.434 327.75 104.38 327.75 105.551Z" fill="#F9A828"/>
<path d="M337.335 105.551C337.335 106.706 336.389 107.652 335.219 107.652C334.049 107.652 333.104 106.706 333.104 105.551C333.104 104.38 334.049 103.434 335.219 103.434C336.389 103.434 337.335 104.38 337.335 105.551Z" fill="#F9A828"/>
<path d="M346.904 105.551C346.904 106.706 345.958 107.652 344.804 107.652C343.634 107.652 342.688 106.706 342.688 105.551C342.688 104.38 343.634 103.434 344.804 103.434C345.958 103.434 346.904 104.38 346.904 105.551Z" fill="#F9A828"/>
<path d="M356.489 105.551C356.489 106.706 355.544 107.652 354.374 107.652C353.204 107.652 352.258 106.706 352.258 105.551C352.258 104.38 353.204 103.434 354.374 103.434C355.544 103.434 356.489 104.38 356.489 105.551Z" fill="#F9A828"/>
<path d="M327.75 113.154C327.75 114.325 326.804 115.272 325.65 115.272C324.48 115.272 323.534 114.325 323.534 113.154C323.534 111.983 324.48 111.037 325.65 111.037C326.804 111.037 327.75 111.983 327.75 113.154Z" fill="#F9A828"/>
<path d="M337.335 113.154C337.335 114.325 336.389 115.272 335.219 115.272C334.049 115.272 333.104 114.325 333.104 113.154C333.104 111.983 334.049 111.037 335.219 111.037C336.389 111.037 337.335 111.983 337.335 113.154Z" fill="#F9A828"/>
<path d="M346.904 113.154C346.904 114.325 345.958 115.272 344.804 115.272C343.634 115.272 342.688 114.325 342.688 113.154C342.688 111.983 343.634 111.037 344.804 111.037C345.958 111.037 346.904 111.983 346.904 113.154Z" fill="#F9A828"/>
<path d="M356.489 113.154C356.489 114.325 355.544 115.272 354.374 115.272C353.204 115.272 352.258 114.325 352.258 113.154C352.258 111.983 353.204 111.037 354.374 111.037C355.544 111.037 356.489 111.983 356.489 113.154Z" fill="#F9A828"/>
<path d="M327.75 120.757C327.75 121.928 326.804 122.874 325.65 122.874C324.48 122.874 323.534 121.928 323.534 120.757C323.534 119.586 324.48 118.64 325.65 118.64C326.804 118.64 327.75 119.586 327.75 120.757Z" fill="#F9A828"/>
<path d="M337.335 120.757C337.335 121.928 336.389 122.874 335.219 122.874C334.049 122.874 333.104 121.928 333.104 120.757C333.104 119.586 334.049 118.64 335.219 118.64C336.389 118.64 337.335 119.586 337.335 120.757Z" fill="#F9A828"/>
<path d="M346.904 120.757C346.904 121.928 345.958 122.874 344.804 122.874C343.634 122.874 342.688 121.928 342.688 120.757C342.688 119.586 343.634 118.64 344.804 118.64C345.958 118.64 346.904 119.586 346.904 120.757Z" fill="#F9A828"/>
<path d="M356.489 120.757C356.489 121.928 355.544 122.874 354.374 122.874C353.204 122.874 352.258 121.928 352.258 120.757C352.258 119.586 353.204 118.64 354.374 118.64C355.544 118.64 356.489 119.586 356.489 120.757Z" fill="#F9A828"/>
<path d="M327.75 128.36C327.75 129.531 326.804 130.478 325.65 130.478C324.48 130.478 323.534 129.531 323.534 128.36C323.534 127.206 324.48 126.243 325.65 126.243C326.804 126.243 327.75 127.206 327.75 128.36Z" fill="#F9A828"/>
<path d="M337.335 128.36C337.335 129.531 336.389 130.478 335.219 130.478C334.049 130.478 333.104 129.531 333.104 128.36C333.104 127.206 334.049 126.243 335.219 126.243C336.389 126.243 337.335 127.206 337.335 128.36Z" fill="#F9A828"/>
<path d="M346.904 128.36C346.904 129.531 345.958 130.478 344.804 130.478C343.634 130.478 342.688 129.531 342.688 128.36C342.688 127.206 343.634 126.243 344.804 126.243C345.958 126.243 346.904 127.206 346.904 128.36Z" fill="#F9A828"/>
<path d="M356.489 128.36C356.489 129.531 355.544 130.478 354.374 130.478C353.204 130.478 352.258 129.531 352.258 128.36C352.258 127.206 353.204 126.243 354.374 126.243C355.544 126.243 356.489 127.206 356.489 128.36Z" fill="#F9A828"/>
<path d="M155.232 174.203C153.661 174.203 152.379 172.92 152.379 171.332C152.379 169.76 153.661 168.477 155.232 168.477C156.819 168.477 158.101 169.76 158.101 171.332C158.101 172.92 156.819 174.203 155.232 174.203Z" fill="#F9A828"/>
<path d="M155.232 187.195C153.661 187.195 152.379 185.912 152.379 184.324C152.379 182.736 153.661 181.453 155.232 181.453C156.819 181.453 158.101 182.736 158.101 184.324C158.101 185.912 156.819 187.195 155.232 187.195Z" fill="#F9A828"/>
<path d="M155.232 200.172C153.661 200.172 152.379 198.888 152.379 197.316C152.379 195.729 153.661 194.445 155.232 194.445C156.819 194.445 158.101 195.729 158.101 197.316C158.101 198.888 156.819 200.172 155.232 200.172Z" fill="#F9A828"/>
<path d="M155.232 213.164C153.661 213.164 152.379 211.881 152.379 210.293C152.379 208.705 153.661 207.422 155.232 207.422C156.819 207.422 158.101 208.705 158.101 210.293C158.101 211.881 156.819 213.164 155.232 213.164Z" fill="#F9A828"/>
<path d="M144.942 174.203C143.356 174.203 142.073 172.92 142.073 171.332C142.073 169.76 143.356 168.477 144.942 168.477C146.513 168.477 147.795 169.76 147.795 171.332C147.795 172.92 146.513 174.203 144.942 174.203Z" fill="#F9A828"/>
<path d="M144.942 187.195C143.356 187.195 142.073 185.912 142.073 184.324C142.073 182.736 143.356 181.453 144.942 181.453C146.513 181.453 147.795 182.736 147.795 184.324C147.795 185.912 146.513 187.195 144.942 187.195Z" fill="#F9A828"/>
<path d="M144.942 200.172C143.356 200.172 142.073 198.888 142.073 197.316C142.073 195.729 143.356 194.445 144.942 194.445C146.513 194.445 147.795 195.729 147.795 197.316C147.795 198.888 146.513 200.172 144.942 200.172Z" fill="#F9A828"/>
<path d="M144.942 213.164C143.356 213.164 142.073 211.881 142.073 210.293C142.073 208.705 143.356 207.422 144.942 207.422C146.513 207.422 147.795 208.705 147.795 210.293C147.795 211.881 146.513 213.164 144.942 213.164Z" fill="#F9A828"/>
<path d="M134.636 174.203C133.049 174.203 131.767 172.92 131.767 171.332C131.767 169.76 133.049 168.477 134.636 168.477C136.223 168.477 137.505 169.76 137.505 171.332C137.505 172.92 136.223 174.203 134.636 174.203Z" fill="#F9A828"/>
<path d="M134.636 187.195C133.049 187.195 131.767 185.912 131.767 184.324C131.767 182.736 133.049 181.453 134.636 181.453C136.223 181.453 137.505 182.736 137.505 184.324C137.505 185.912 136.223 187.195 134.636 187.195Z" fill="#F9A828"/>
<path d="M134.636 200.172C133.049 200.172 131.767 198.888 131.767 197.316C131.767 195.729 133.049 194.445 134.636 194.445C136.223 194.445 137.505 195.729 137.505 197.316C137.505 198.888 136.223 200.172 134.636 200.172Z" fill="#F9A828"/>
<path d="M134.636 213.164C133.049 213.164 131.767 211.881 131.767 210.293C131.767 208.705 133.049 207.422 134.636 207.422C136.223 207.422 137.505 208.705 137.505 210.293C137.505 211.881 136.223 213.164 134.636 213.164Z" fill="#F9A828"/>
<path d="M124.33 174.203C122.759 174.203 121.477 172.92 121.477 171.332C121.477 169.76 122.759 168.477 124.33 168.477C125.916 168.477 127.199 169.76 127.199 171.332C127.199 172.92 125.916 174.203 124.33 174.203Z" fill="#F9A828"/>
<path d="M124.33 187.195C122.759 187.195 121.477 185.912 121.477 184.324C121.477 182.736 122.759 181.453 124.33 181.453C125.916 181.453 127.199 182.736 127.199 184.324C127.199 185.912 125.916 187.195 124.33 187.195Z" fill="#F9A828"/>
<path d="M124.33 200.172C122.759 200.172 121.477 198.888 121.477 197.316C121.477 195.729 122.759 194.445 124.33 194.445C125.916 194.445 127.199 195.729 127.199 197.316C127.199 198.888 125.916 200.172 124.33 200.172Z" fill="#F9A828"/>
<path d="M124.33 213.164C122.759 213.164 121.477 211.881 121.477 210.293C121.477 208.705 122.759 207.422 124.33 207.422C125.916 207.422 127.199 208.705 127.199 210.293C127.199 211.881 125.916 213.164 124.33 213.164Z" fill="#F9A828"/>
<path d="M114.039 174.203C112.452 174.203 111.17 172.92 111.17 171.332C111.17 169.76 112.452 168.477 114.039 168.477C115.626 168.477 116.908 169.76 116.908 171.332C116.908 172.92 115.626 174.203 114.039 174.203Z" fill="#F9A828"/>
<path d="M114.039 187.195C112.452 187.195 111.17 185.912 111.17 184.324C111.17 182.736 112.452 181.453 114.039 181.453C115.626 181.453 116.908 182.736 116.908 184.324C116.908 185.912 115.626 187.195 114.039 187.195Z" fill="#F9A828"/>
<path d="M114.039 200.172C112.452 200.172 111.17 198.888 111.17 197.316C111.17 195.729 112.452 194.445 114.039 194.445C115.626 194.445 116.908 195.729 116.908 197.316C116.908 198.888 115.626 200.172 114.039 200.172Z" fill="#F9A828"/>
<path d="M114.039 213.164C112.452 213.164 111.17 211.881 111.17 210.293C111.17 208.705 112.452 207.422 114.039 207.422C115.626 207.422 116.908 208.705 116.908 210.293C116.908 211.881 115.626 213.164 114.039 213.164Z" fill="#F9A828"/>
<path d="M103.733 174.203C102.162 174.203 100.88 172.92 100.88 171.332C100.88 169.76 102.162 168.477 103.733 168.477C105.32 168.477 106.602 169.76 106.602 171.332C106.602 172.92 105.32 174.203 103.733 174.203Z" fill="#F9A828"/>
<path d="M103.733 187.195C102.162 187.195 100.88 185.912 100.88 184.324C100.88 182.736 102.162 181.453 103.733 181.453C105.32 181.453 106.602 182.736 106.602 184.324C106.602 185.912 105.32 187.195 103.733 187.195Z" fill="#F9A828"/>
<path d="M103.733 200.172C102.162 200.172 100.88 198.888 100.88 197.316C100.88 195.729 102.162 194.445 103.733 194.445C105.32 194.445 106.602 195.729 106.602 197.316C106.602 198.888 105.32 200.172 103.733 200.172Z" fill="#F9A828"/>
<path d="M103.733 213.164C102.162 213.164 100.88 211.881 100.88 210.293C100.88 208.705 102.162 207.422 103.733 207.422C105.32 207.422 106.602 208.705 106.602 210.293C106.602 211.881 105.32 213.164 103.733 213.164Z" fill="#F9A828"/>
<path d="M93.4424 174.203C91.8555 174.203 90.5732 172.92 90.5732 171.332C90.5732 169.76 91.8555 168.477 93.4424 168.477C95.0132 168.477 96.2954 169.76 96.2954 171.332C96.2954 172.92 95.0132 174.203 93.4424 174.203Z" fill="#F9A828"/>
<path d="M93.4424 187.195C91.8555 187.195 90.5732 185.912 90.5732 184.324C90.5732 182.736 91.8555 181.453 93.4424 181.453C95.0132 181.453 96.2954 182.736 96.2954 184.324C96.2954 185.912 95.0132 187.195 93.4424 187.195Z" fill="#F9A828"/>
<path d="M93.4424 200.172C91.8555 200.172 90.5732 198.888 90.5732 197.316C90.5732 195.729 91.8555 194.445 93.4424 194.445C95.0132 194.445 96.2954 195.729 96.2954 197.316C96.2954 198.888 95.0132 200.172 93.4424 200.172Z" fill="#F9A828"/>
<path d="M93.4424 213.164C91.8555 213.164 90.5732 211.881 90.5732 210.293C90.5732 208.705 91.8555 207.422 93.4424 207.422C95.0132 207.422 96.2954 208.705 96.2954 210.293C96.2954 211.881 95.0132 213.164 93.4424 213.164Z" fill="#F9A828"/>
<path d="M390.12 70.2L374.96 107.08C369.96 108.08 364.88 108.84 359.04 106.48L331.56 94.2L351.48 52.28L390.12 70.2Z" fill="#FAFAFA"/>
<path d="M392.839 69.16L377.719 106.04L361.759 105.4L334.319 93.16L351.679 51.76L392.839 69.16Z" fill="#F5F5F5"/>
<path d="M374.32 101.2L377.72 106.04C377.72 106.04 374.24 107.6 370.88 107.44C367.48 107.28 364.52 106.64 361.76 105.4C361.76 105.4 368.92 106.36 374.32 101.2Z" fill="#E0E0E0"/>
<path d="M391.88 78.6L378.64 62.08L382.08 59.28L395.8 75.76L391.88 78.6Z" fill="#EBEBEB"/>
<path d="M342.92 58.5201L363.08 52.0801L364.48 56.3201L344.2 63.2001L342.92 58.5201Z" fill="#EBEBEB"/>
<path d="M350.76 66.7599C350.8 66.6799 357.84 69.5599 366.48 73.1999C375.12 76.8399 382.08 79.9199 382.04 79.9999C382 80.1199 374.96 77.2399 366.32 73.5999C357.68 69.9199 350.72 66.8799 350.76 66.7599Z" fill="#E0E0E0"/>
<path d="M348.52 72.4799C348.56 72.3599 355.6 75.2399 364.24 78.8799C372.88 82.5599 379.84 85.5999 379.8 85.7199C379.76 85.7999 372.72 82.9199 364.08 79.2799C355.44 75.6399 348.48 72.5599 348.52 72.4799Z" fill="#E0E0E0"/>
<path d="M346.199 77.4001C346.279 77.2801 353.319 80.1601 361.919 83.8401C370.559 87.4801 377.559 90.5201 377.479 90.6401C377.439 90.7601 370.399 87.8801 361.759 84.2001C353.119 80.5601 346.159 77.5201 346.199 77.4001Z" fill="#E0E0E0"/>
<path d="M344.199 82.2399C344.239 82.1199 351.279 84.9999 359.919 88.6399C368.559 92.3199 375.519 95.3599 375.479 95.4799C375.439 95.5599 368.399 92.6799 359.759 89.0399C351.119 85.3999 344.159 82.3199 344.199 82.2399Z" fill="#E0E0E0"/>
<path d="M514.188 368H0.811535C0.365191 368 0 367.55 0 367C0 366.45 0.365191 366 0.811535 366H514.188C514.635 366 515 366.45 515 367C515 367.55 514.635 368 514.188 368Z" fill="#2E383F"/>
<path d="M204.601 62.2401L223.921 121.08C231.601 123.2 239.401 124.92 248.681 121.92L292.641 106L266.521 38.8L204.601 62.2401Z" fill="#E0E0E0"/>
<path d="M200.48 60.28L219.8 119.12L244.56 119.96L288.48 104.08L266.2 37.96L200.48 60.28Z" fill="white"/>
<path d="M225.601 112.08L219.801 119.12C219.801 119.12 225.001 121.96 230.241 122.08C235.521 122.24 240.161 121.56 244.561 119.96C244.561 119.96 233.361 120.64 225.601 112.08Z" fill="#F9A828"/>
<path opacity="0.3" d="M225.601 112.08C223.841 115.64 222.041 119.84 219.801 119.12C219.801 119.12 225.001 121.96 230.241 122.08C235.521 122.24 240.161 121.56 244.561 119.96C244.561 119.96 233.361 120.64 225.601 112.08Z" fill="#2E383F"/>
<path d="M200.88 75.08L223.32 50.96L218.28 46.2L195.2 70.2L200.88 75.08Z" fill="#E0E0E0"/>
<path d="M279.08 49.4399L248.52 37.1599L245.88 43.5599L276.56 56.5199L279.08 49.4399Z" fill="#E0E0E0"/>
<path d="M265.96 61.32C266 61.44 254.84 65.32 241.08 70.04C227.28 74.72 216.04 78.44 216 78.32C215.96 78.2 227.12 74.32 240.92 69.64C254.72 64.92 265.92 61.2 265.96 61.32Z" fill="#2E383F"/>
<path d="M268.84 70.4C268.84 70.52 257.72 74.4 243.92 79.12C230.12 83.8 218.88 87.52 218.88 87.4C218.84 87.32 229.96 83.4 243.76 78.72C257.56 74 268.8 70.32 268.84 70.4Z" fill="#2E383F"/>
<path d="M271.8 78.32C271.84 78.4 260.72 82.32 246.92 87C233.12 91.68 221.88 95.4 221.84 95.32C221.84 95.2 232.96 91.32 246.76 86.6C260.56 81.92 271.8 78.2 271.8 78.32Z" fill="#2E383F"/>
<path d="M274.401 85.9998C274.441 86.1198 263.281 89.9998 249.481 94.7198C235.681 99.3998 224.481 103.12 224.441 103C224.401 102.92 235.521 98.9998 249.321 94.3198C263.121 89.5998 274.361 85.9198 274.401 85.9998Z" fill="#2E383F"/>
<path d="M304 254.56L300.16 290.6C300.16 290.6 292.6 279.2 287.48 284.28C282.64 289.12 274.04 324.48 274.04 324.48C274.04 324.48 273.92 336 280.04 339.04C299.68 348.8 321.56 330.4 321.56 330.4L318.48 227.36C310.32 234.24 305.16 243.96 304 254.56Z" fill="#07617D"/>
<path d="M370.321 229.519L336.321 226.799C336.081 222.839 336.361 207.479 336.361 207.479C336.361 207.479 322.241 205.279 322.041 191.119C321.881 176.999 324.321 144.479 324.321 144.479C340.721 137.439 359.601 139.839 373.721 150.719L375.841 152.319L370.321 229.519Z" fill="#FEC6D0"/>
<path d="M374.081 166.959C374.321 166.879 383.801 164.119 383.521 173.759C383.201 183.439 373.561 181.159 373.561 180.879C373.521 180.599 374.081 166.959 374.081 166.959Z" fill="#FEC6D0"/>
<path d="M376.6 177.279C376.64 177.279 376.76 177.399 377.04 177.559C377.32 177.679 377.8 177.799 378.32 177.639C379.36 177.279 380.28 175.679 380.36 173.959C380.4 173.079 380.24 172.239 379.96 171.519C379.68 170.799 379.24 170.279 378.76 170.199C378.24 170.039 377.88 170.359 377.72 170.599C377.6 170.879 377.64 171.079 377.6 171.079C377.56 171.119 377.4 170.919 377.48 170.519C377.52 170.319 377.64 170.119 377.88 169.919C378.12 169.759 378.48 169.679 378.84 169.719C379.56 169.799 380.24 170.479 380.56 171.279C380.88 172.039 381.08 172.999 381.04 173.999C380.92 175.919 379.84 177.719 378.44 178.079C377.76 178.239 377.2 177.999 376.92 177.759C376.64 177.519 376.56 177.319 376.6 177.279Z" fill="#AA6550"/>
<path d="M327.441 166.44C327.401 167.48 328.281 168.4 329.401 168.48C330.521 168.52 331.441 167.72 331.481 166.64C331.521 165.56 330.641 164.68 329.521 164.6C328.441 164.56 327.481 165.36 327.441 166.44Z" fill="#2E383F"/>
<path d="M327.001 164.4C327.241 164.68 328.801 163.52 330.961 163.52C333.121 163.52 334.721 164.64 334.961 164.36C335.081 164.24 334.841 163.76 334.121 163.28C333.441 162.76 332.281 162.28 330.921 162.28C329.561 162.28 328.441 162.8 327.761 163.28C327.121 163.8 326.881 164.28 327.001 164.4Z" fill="#2E383F"/>
<path d="M348.761 167.2C348.721 168.24 349.561 169.16 350.681 169.24C351.801 169.28 352.721 168.48 352.761 167.4C352.801 166.32 351.921 165.44 350.841 165.36C349.721 165.32 348.761 166.12 348.761 167.2Z" fill="#2E383F"/>
<path d="M348.361 164.8C348.641 165.08 350.161 163.92 352.321 163.96C354.521 163.92 356.121 165.04 356.321 164.76C356.441 164.64 356.201 164.16 355.521 163.68C354.841 163.16 353.641 162.68 352.321 162.68C350.961 162.68 349.801 163.2 349.161 163.68C348.481 164.2 348.241 164.68 348.361 164.8Z" fill="#2E383F"/>
<path d="M340.48 180.919C340.48 180.799 339.16 180.559 336.96 180.279C336.4 180.239 335.88 180.119 335.8 179.759C335.64 179.359 335.88 178.759 336.16 178.119C336.667 176.759 337.214 175.346 337.8 173.879C340.08 167.839 341.72 162.919 341.48 162.799C341.24 162.719 339.2 167.519 336.92 173.559C336.36 175.026 335.84 176.439 335.36 177.799C335.12 178.439 334.76 179.159 335.04 179.999C335.2 180.399 335.6 180.679 335.96 180.799C336.32 180.919 336.64 180.919 336.92 180.919C339.12 181.039 340.48 181.039 340.48 180.919Z" fill="#2E383F"/>
<path d="M347.801 156.279C348.041 156.879 350.201 156.599 352.761 156.919C355.321 157.159 357.361 157.919 357.721 157.359C357.841 157.119 357.481 156.559 356.681 155.999C355.841 155.439 354.521 154.879 353.001 154.719C351.481 154.559 350.081 154.799 349.121 155.159C348.201 155.559 347.721 155.999 347.801 156.279Z" fill="#2E383F"/>
<path d="M327.801 158.12C328.201 158.6 329.681 158.08 331.481 158.08C333.281 157.96 334.801 158.4 335.161 157.88C335.321 157.64 335.081 157.12 334.401 156.68C333.761 156.2 332.641 155.84 331.441 155.84C330.201 155.88 329.121 156.36 328.481 156.84C327.841 157.36 327.641 157.88 327.801 158.12Z" fill="#2E383F"/>
<path d="M317.441 135.56C317.281 133.8 317.921 131.92 319.361 130.88C320.801 129.88 323.001 129.92 324.161 131.24C323.521 128.88 325.441 126.16 327.881 126C330.201 125.88 332.161 127.6 334.401 128.24C336.561 128.84 338.881 128.32 341.001 127.48C343.081 126.6 345.041 125.44 347.161 124.68C351.601 123.08 356.641 123.28 360.921 125.24C365.201 127.2 368.641 130.88 370.321 135.32C373.401 134.32 376.921 135.92 378.841 138.52C380.721 141.16 381.201 144.6 380.841 147.8C380.601 150 379.961 152.08 379.241 154.16C379.241 154.36 379.241 154.52 379.241 154.72C379.081 162.48 378.201 171.6 374.881 171.68C369.121 171.76 370.481 160.84 370.481 160.84C363.401 158.12 366.041 147.48 364.241 145.88C362.481 144.24 358.761 140.52 343.921 148.08C338.121 151.04 330.441 150.96 326.281 150C326.148 149.973 326.014 149.946 325.881 149.92C325.854 149.92 325.828 149.92 325.801 149.92C325.761 149.92 325.721 149.88 325.681 149.88C324.361 149.52 323.081 149 321.881 148.24C320.521 147.4 319.321 146.24 318.721 144.76C318.161 143.28 318.361 141.4 319.561 140.32C318.441 138.96 317.601 137.32 317.441 135.56Z" fill="#2E383F"/>
<path d="M398.121 318.32L399.201 338.4L401.601 367.24H310.681L314.641 324.64L306.921 257.32C307.561 233.52 316.721 223.64 335.401 221.36C335.561 221.32 333.761 221.56 333.921 221.52C336.521 221.24 333.921 221.52 335.401 221.36C347.481 225.066 359.574 225.053 371.681 221.32C377.281 221.56 381.921 223.28 386.681 224.2C401.681 227.08 414.041 238.68 417.041 248.8C419.521 257.08 437.401 329.2 437.401 329.2H401.841L398.121 318.32Z" fill="#07617D"/>
<path d="M338.64 187.599C339 188.479 339.32 189.359 339.92 190.079C340.48 190.839 341.32 191.399 342.24 191.439C343.24 191.479 344.16 190.919 344.72 190.079C345.28 189.279 345.48 188.239 345.44 187.239C345.4 186.359 344.96 185.279 344.08 185.199C343.72 185.159 343.36 185.279 343 185.439C341.454 186.052 339.907 186.679 338.36 187.319" fill="white"/>
<path d="M340.521 191.439C340.521 191.319 341.561 191.719 343.001 191.159C343.681 190.879 344.441 190.319 344.881 189.439C345.281 188.559 345.401 187.399 344.921 186.399C344.841 186.119 344.681 185.879 344.521 185.679C344.361 185.479 344.401 185.519 344.201 185.519C344.001 185.599 343.681 185.719 343.441 185.839C343.174 185.946 342.921 186.053 342.681 186.159C341.681 186.559 340.761 186.879 340.001 187.199C338.481 187.759 337.521 188.039 337.441 187.959C337.401 187.839 338.281 187.359 339.761 186.639C340.521 186.279 341.401 185.879 342.361 185.439C342.601 185.333 342.854 185.213 343.121 185.079C343.401 184.999 343.601 184.879 343.961 184.759C344.161 184.679 344.401 184.679 344.681 184.759C344.921 184.879 345.081 185.039 345.161 185.159C345.401 185.439 345.561 185.719 345.721 186.039C346.241 187.319 346.121 188.759 345.561 189.799C345.001 190.879 344.001 191.479 343.201 191.719C342.361 191.959 341.641 191.919 341.161 191.799C340.721 191.679 340.481 191.519 340.521 191.439Z" fill="#2E383F"/>
<path d="M306.761 314.28L285.361 248.56L283.401 237.52C283.401 237.52 277.601 212.92 277.321 210.48C277.041 207.68 275.601 207.16 274.561 207.32C272.961 207.6 272.041 209.72 272.201 212.16C272.281 213 273.801 226.16 273.801 226.16C273.801 226.16 273.081 225.12 270.881 222.88C268.641 220.6 263.921 219.68 259.241 220.36C254.561 221 253.321 221.6 253.481 223.44C253.561 224.16 254.041 224.72 254.601 225.12C255.521 225.76 256.681 226 257.801 225.84C265.321 224.88 267.761 228.72 267.761 228.72L268.041 230.16C268.041 230.16 263.081 227.36 259.601 229.16C259.041 229.44 258.601 229.8 258.241 230.2C256.241 230.44 254.401 231.72 253.561 233.56C252.681 235.44 252.881 237.84 254.081 239.52C254.681 240.36 255.681 241.04 256.601 240.76C257.121 240.6 257.481 240.2 257.881 239.8C258.041 239.6 258.241 239.4 258.481 239.24L259.761 243.16C259.761 243.16 263.081 251.88 264.121 255.84L274.561 322.04C276.001 331.2 284.681 337.4 293.841 335.8C303.801 334.04 309.881 323.92 306.761 314.28Z" fill="#FEC6D0"/>
<path d="M283.08 247.879C281.76 248.439 280.2 247.559 279.32 246.439C278.48 245.279 278 243.879 277.2 242.679C274.84 239.079 269.88 237.759 267.72 234.079C267.4 233.559 267.16 232.799 267.6 232.399C268.04 232.039 268.68 232.239 269.2 232.439C273.574 234.279 277.96 236.119 282.36 237.959" fill="#FEC6D0"/>
<path d="M282.361 237.96C282.361 237.92 281.881 237.64 281.001 237.24C280.081 236.8 278.761 236.2 277.161 235.48C275.481 234.72 273.521 233.88 271.441 232.96C270.907 232.746 270.347 232.52 269.761 232.28C269.241 232.08 268.601 231.6 267.681 231.92C267.201 232.08 266.921 232.64 266.961 233.04C267.001 233.48 267.121 233.84 267.281 234.16C267.681 234.8 268.081 235.36 268.561 235.84C270.521 237.92 272.881 239.08 274.681 240.52C275.561 241.24 276.361 242 276.921 242.84C277.481 243.64 277.881 244.56 278.321 245.32C279.161 246.96 280.481 247.96 281.521 248.12C282.601 248.32 283.121 247.92 283.081 247.88C283.081 247.8 282.521 248.08 281.601 247.8C280.681 247.56 279.561 246.64 278.841 245.08C278.401 244.28 278.041 243.36 277.481 242.44C276.881 241.56 276.081 240.72 275.121 239.96C273.321 238.4 270.961 237.2 269.161 235.28C268.721 234.84 268.321 234.32 268.001 233.8C267.721 233.28 267.681 232.72 268.001 232.64C268.321 232.48 268.921 232.72 269.481 232.96C270.041 233.2 270.601 233.44 271.161 233.68C273.281 234.52 275.201 235.32 276.921 236C278.601 236.64 279.921 237.16 280.841 237.52C281.801 237.84 282.321 238.04 282.361 237.96Z" fill="#AA6550"/>
<path d="M268.201 230.2C268.121 230.24 268.161 229.04 267.081 227.76C266.521 227.12 265.681 226.56 264.601 226.32C263.521 226.08 262.281 226.08 261.001 226.2C259.681 226.32 258.401 226.44 257.241 226.28C256.081 226.12 255.041 225.76 254.321 225.2C253.561 224.64 253.321 223.84 253.361 223.32C253.401 222.84 253.521 222.56 253.521 222.6C253.601 222.6 253.521 222.84 253.561 223.32C253.601 223.76 253.881 224.44 254.561 224.92C255.201 225.36 256.201 225.68 257.281 225.8C258.401 225.92 259.641 225.8 260.961 225.68C262.281 225.56 263.561 225.56 264.721 225.88C265.881 226.16 266.801 226.8 267.361 227.52C267.921 228.24 268.121 228.96 268.201 229.44C268.281 229.92 268.241 230.2 268.201 230.2Z" fill="#AA6550"/>
<path d="M272.161 211.2C272.241 211.2 272.321 212.2 272.481 213.84C272.641 215.64 272.841 217.76 273.081 220.16C273.361 222.52 273.601 224.64 273.801 226.44C274.001 228.08 274.081 229.08 274.041 229.08C273.961 229.08 273.721 228.12 273.441 226.52C273.161 224.88 272.841 222.68 272.561 220.2C272.321 217.72 272.161 215.48 272.121 213.84C272.041 212.24 272.081 211.2 272.161 211.2Z" fill="#AA6550"/>
<path d="M265.56 233.48C265.56 233.52 265.24 233.44 264.76 233.28C264.28 233.12 263.48 232.92 262.72 233.4C262.36 233.6 262.16 234.04 262.16 234.56C262.16 235.08 262.32 235.64 262.48 236.24C262.6 236.84 262.76 237.64 262.36 238.36C262 239.04 261.28 239.52 260.48 239.6C259.68 239.72 258.88 239.4 258.32 238.92C257.76 238.44 257.36 237.88 257.16 237.2C256.84 235.92 256.8 234.8 256.84 233.84C256.88 232.88 257.04 232.08 257.28 231.6C257.48 231.08 257.72 230.88 257.76 230.88C257.8 230.92 257.6 231.16 257.48 231.64C257.32 232.16 257.2 232.92 257.2 233.84C257.24 234.76 257.28 235.92 257.6 237.08C257.96 238.12 259.12 239.24 260.4 239.08C261.04 239 261.64 238.64 261.92 238.12C262.2 237.6 262.12 236.96 262 236.36C261.88 235.76 261.68 235.16 261.72 234.56C261.72 233.96 262.04 233.32 262.52 233.08C263.48 232.56 264.36 232.88 264.84 233.08C265.32 233.28 265.56 233.44 265.56 233.48Z" fill="#AA6550"/>
<path d="M258.48 238.52C258.52 238.52 258.64 238.76 258.52 239.28C258.4 239.72 258 240.44 257.12 240.8C256.28 241.12 255.08 240.96 254.12 240.2C253.2 239.44 252.64 238.2 252.48 236.88C252.32 235.52 252.64 234.24 253.24 233.24C253.8 232.2 254.64 231.52 255.36 231.08C256.12 230.68 256.8 230.48 257.28 230.4C257.76 230.36 258.04 230.36 258.04 230.4C258.04 230.52 256.96 230.52 255.56 231.4C254.88 231.84 254.16 232.52 253.64 233.48C253.12 234.4 252.88 235.6 253 236.8C253.12 238.04 253.64 239.16 254.44 239.84C255.24 240.52 256.28 240.68 257 240.44C257.72 240.2 258.16 239.6 258.32 239.2C258.48 238.8 258.44 238.52 258.48 238.52Z" fill="#AA6550"/>
<path d="M268.521 246.36C268.521 246.28 268.961 246.16 269.761 246.24C270.561 246.28 271.721 246.64 272.681 247.6L272.281 247.76C272.281 247.2 272.281 246.6 272.361 245.96C272.761 242.52 274.401 240.08 274.481 240.2C274.641 240.24 273.281 242.68 272.881 246.04C272.841 246.64 272.801 247.24 272.761 247.76V248.36L272.361 247.96C271.481 247.08 270.481 246.68 269.721 246.52C269.001 246.36 268.521 246.4 268.521 246.36Z" fill="#AA6550"/>
<path d="M265.84 223.96C266 224 265.56 225 264.48 225.6C263.36 226.24 262.32 226.08 262.32 225.96C262.32 225.8 263.28 225.72 264.2 225.16C265.16 224.6 265.72 223.88 265.84 223.96Z" fill="#AA6550"/>
<path d="M323.72 223.92C323.72 223.96 323.4 224.24 322.88 224.88C322.36 225.48 321.52 226.44 321.04 227.84C320.907 228.213 320.827 228.6 320.8 229C320.8 229.4 320.92 229.84 321.12 230.2C321.56 231 322.4 231.56 323.44 231.92C325.44 232.68 328 232.92 330.76 232.96C332.12 233 333.6 233.04 335.12 233.12C335.893 233.227 336.667 233.32 337.44 233.4C338.24 233.48 339.04 233.72 339.84 233.84C343.08 234.56 346.48 235.8 349.48 238.12C350.96 239.24 352.32 240.64 353.44 242.28C353.72 242.72 353.96 243.12 354.2 243.6C354.44 244.04 354.6 244.52 354.8 244.96C355.16 245.92 355.44 246.88 355.6 247.88C356.4 251.92 355.8 256.36 353.72 260.2C351.64 264.04 348.12 266.84 344.28 268.28C342.36 269 340.36 269.36 338.4 269.44C336.4 269.48 334.48 269.16 332.68 268.76C330.88 268.36 329.16 267.92 327.48 267.8C325.76 267.68 324.12 267.92 322.72 268.64C321.28 269.36 320.16 270.44 319.16 271.52C318.16 272.64 317.32 273.84 316.48 274.96C314.8 277.16 313.04 279.16 311 280.16C310 280.68 308.92 281 307.96 280.96C306.96 280.96 306.08 280.8 305.36 280.48C304.6 280.2 304 279.8 303.56 279.36C303.12 278.92 302.84 278.48 302.68 278.08C302.36 277.32 302.4 276.88 302.4 276.88C302.44 276.84 302.48 277.32 302.84 278.04C303 278.36 303.32 278.8 303.72 279.16C304.16 279.56 304.76 279.92 305.48 280.2C306.88 280.72 308.88 280.84 310.8 279.76C312.72 278.76 314.36 276.84 316 274.6C316.8 273.48 317.64 272.28 318.68 271.12C319.68 269.96 320.88 268.8 322.4 268.04C323.92 267.24 325.72 266.96 327.52 267.08C329.28 267.2 331.08 267.6 332.88 268C334.64 268.4 336.48 268.72 338.36 268.64C340.24 268.56 342.16 268.2 344 267.52C347.64 266.12 351.04 263.44 353 259.8C354.96 256.16 355.56 251.88 354.8 248.04C354.64 247.08 354.36 246.16 354.04 245.24C353.84 244.8 353.68 244.36 353.48 243.92C353.28 243.52 353.04 243.12 352.76 242.72C351.72 241.16 350.44 239.84 349 238.72C346.16 236.48 342.84 235.28 339.72 234.52C338.92 234.36 338.12 234.16 337.36 234.08C336.587 233.973 335.827 233.867 335.08 233.76C333.56 233.68 332.12 233.6 330.72 233.56C327.92 233.44 325.36 233.2 323.24 232.36C322.2 231.96 321.24 231.32 320.76 230.4C320.52 229.96 320.44 229.44 320.44 229C320.467 228.547 320.56 228.133 320.72 227.76C321.32 226.24 322.2 225.36 322.76 224.76C323.32 224.16 323.68 223.92 323.72 223.92Z" fill="#FAFAFA"/>
<path d="M384.56 277.279C384.52 277.279 384.32 276.639 384.2 275.479C384.04 274.319 384.04 272.559 384.52 270.479C384.96 268.359 386 265.999 387.64 263.679C389.24 261.359 391.52 259.159 394.32 257.479C397.16 255.839 400.12 254.799 402.88 254.239C405.64 253.679 408.16 253.519 410.28 253.479C412.4 253.479 414.08 253.599 415.28 253.759C416.44 253.879 417.08 253.999 417.08 254.079C417.08 254.199 414.48 253.919 410.28 254.079C408.2 254.159 405.72 254.399 403.04 254.999C400.36 255.599 397.48 256.599 394.76 258.199C392.08 259.799 389.84 261.919 388.24 264.119C386.64 266.319 385.6 268.599 385.08 270.599C384.56 272.599 384.44 274.279 384.52 275.439C384.56 276.599 384.64 277.279 384.56 277.279Z" fill="#FAFAFA"/>
<path d="M428.28 291.199C428.32 291.199 428 291.719 427.32 292.599C426.68 293.439 425.6 294.639 424.12 295.879C422.64 297.159 420.68 298.479 418.36 299.599C416 300.719 413.24 301.599 410.28 301.959C407.28 302.319 404.4 302.119 401.88 301.599C399.32 301.079 397.12 300.239 395.4 299.359C393.64 298.479 392.32 297.599 391.48 296.919C390.6 296.239 390.2 295.799 390.24 295.759C390.32 295.639 392.16 297.239 395.64 298.839C399.08 300.439 404.36 301.839 410.16 301.119C415.96 300.439 420.76 297.799 423.76 295.439C426.76 293.079 428.16 291.079 428.28 291.199Z" fill="#FAFAFA"/>
<path d="M388.08 288.64C388.12 288.68 387.84 288.72 387.36 288.92C386.88 289.12 386.24 289.48 385.52 290.16C384.84 290.84 384.2 291.84 383.68 293.08C383.2 294.36 382.76 295.92 382.4 297.6C382.04 299.32 381.76 301.24 381.12 303.24C380.76 304.24 380.36 305.28 379.72 306.24C379.08 307.2 378.32 308.08 377.4 308.84C375.56 310.4 373.24 311.44 370.8 312.16C368.32 312.92 365.72 313.32 363.08 313.84C357.84 314.8 353.08 316.72 349.4 319.52C347.6 320.88 346.04 322.48 344.84 324.12C343.68 325.76 342.84 327.48 342.24 329.12C341.12 332.4 341.12 335.32 341.4 337.2C341.68 339.16 342.12 340.16 342.04 340.2C342.014 340.2 341.907 339.96 341.72 339.48C341.6 339.24 341.52 338.92 341.4 338.56C341.28 338.2 341.2 337.76 341.08 337.28C340.68 335.32 340.6 332.36 341.68 328.92C342.24 327.24 343.08 325.44 344.28 323.72C345.52 322 347.08 320.36 348.96 318.92C352.68 316 357.6 314 362.92 313C365.56 312.48 368.16 312.08 370.56 311.4C372.96 310.72 375.16 309.68 376.92 308.24C377.8 307.52 378.52 306.72 379.12 305.84C379.68 304.96 380.12 304 380.44 303.04C381.12 301.12 381.44 299.2 381.84 297.48C382.24 295.76 382.68 294.2 383.28 292.92C383.84 291.6 384.56 290.6 385.32 289.92C386.08 289.24 386.8 288.92 387.32 288.76C387.8 288.64 388.08 288.6 388.08 288.64Z" fill="#FAFAFA"/>
<path d="M366.68 285.28C366.68 285.28 367 285.84 367.08 286.92C367.16 288 366.92 289.68 365.8 291.36C365.24 292.16 364.44 293 363.4 293.52C362.88 293.84 362.28 294.04 361.64 294.16C361.04 294.28 360.36 294.32 359.72 294.24C358.36 294.12 357 293.6 355.88 292.68C354.72 291.8 353.76 290.52 353.4 289C353.16 288 353.12 287 353.36 286.04C353.56 285.08 354.08 284.24 354.64 283.52C355.16 282.84 355.72 282.16 356.36 281.6C356.68 281.333 357.027 281.08 357.4 280.84C357.76 280.64 358.16 280.44 358.64 280.4L358.76 281.12C358.627 281.146 358.494 281.186 358.36 281.24L358.16 280.52C359.76 280.08 361.36 280.28 362.56 280.76C363.8 281.24 364.72 282 365.36 282.72C365.96 283.4 366.32 284.08 366.48 284.56C366.64 285 366.68 285.28 366.68 285.28C366.56 285.32 366.32 284.24 365.04 283C364.4 282.36 363.52 281.72 362.36 281.32C361.24 280.92 359.8 280.8 358.36 281.24L358.16 280.52C358.294 280.493 358.427 280.466 358.56 280.44L358.68 281.16C358.12 281.2 357.44 281.68 356.88 282.2C356.32 282.72 355.76 283.32 355.28 284C354.76 284.68 354.32 285.4 354.16 286.24C353.96 287.04 354 287.92 354.2 288.8C354.52 290.12 355.36 291.24 356.36 292.04C357.4 292.84 358.6 293.36 359.8 293.48C360.4 293.56 360.96 293.52 361.52 293.44C362.08 293.32 362.6 293.2 363.08 292.92C364.04 292.44 364.76 291.72 365.32 291C366.44 289.52 366.76 287.96 366.76 286.92C366.76 285.88 366.6 285.32 366.68 285.28Z" fill="#FAFAFA"/>
<path d="M315.04 259.159C315.04 259.159 315.04 259.226 315.04 259.359C315.04 259.546 315.04 259.759 315.04 259.999C315.013 260.586 314.973 261.386 314.92 262.399C314.8 264.519 314.68 267.559 314.48 271.279C314.2 278.799 313.88 289.119 313.64 300.599C313.4 312.039 313.24 322.399 313.12 329.879C313.08 333.599 313.04 336.639 313 338.759C312.973 339.799 312.96 340.613 312.96 341.199C312.933 341.439 312.92 341.639 312.92 341.799C312.92 341.959 312.907 342.039 312.88 342.039C312.88 342.039 312.88 341.959 312.88 341.799C312.88 341.639 312.867 341.439 312.84 341.199C312.84 340.613 312.84 339.799 312.84 338.759C312.84 336.639 312.84 333.599 312.84 329.879C312.88 322.399 312.96 312.039 313.2 300.559C313.44 289.119 313.8 278.759 314.2 271.279C314.4 267.519 314.56 264.479 314.76 262.399C314.84 261.386 314.907 260.586 314.96 259.999C314.987 259.733 315 259.519 315 259.359C315.027 259.226 315.04 259.159 315.04 259.159Z" fill="#2E383F"/>
<g opacity="0.2">
<path d="M299.761 333.559C304.201 335.679 310.041 331.559 312.321 327.199C312.321 327.199 313.521 317.519 313.361 312.559C313.041 303.399 313.721 294.359 313.401 285.199C312.721 290.639 310.441 295.879 306.881 300.079C305.881 301.239 304.801 302.359 304.441 303.839C303.761 306.479 305.801 311.239 307.081 313.639C311.041 320.919 302.361 333.599 300.041 333.359" fill="#2E383F"/>
</g>
<g opacity="0.2">
<path d="M383.28 273.84C384.747 292.08 386.214 310.32 387.68 328.56C387.8 330.28 387.96 332.04 388.64 333.6C389.32 335.2 390.64 336.64 392.32 336.96C394.92 337.52 397.44 335.28 398.16 332.72C398.88 330.2 398.32 327.48 397.68 324.92C396.6 320.52 395.36 316.2 394.12 311.84C390.547 299.28 386.974 286.707 383.4 274.12" fill="#2E383F"/>
</g>
<path d="M333.161 367.239C333.081 367.199 333.921 366.359 334.361 364.359C334.841 362.359 334.561 359.319 333.001 355.999C332.241 354.359 331.201 352.639 330.121 350.759C329.081 348.839 327.921 346.759 327.401 344.279C326.881 341.799 327.201 339.119 327.961 336.559C328.761 333.959 329.921 331.479 330.881 328.839C332.881 323.639 332.761 318.079 331.281 313.519C330.521 311.239 329.481 309.199 328.241 307.479C327.001 305.719 325.601 304.279 324.201 303.119C321.361 300.799 318.601 299.599 316.681 298.919C314.761 298.279 313.601 298.119 313.641 298.039C313.641 298.013 313.907 298.039 314.441 298.119C315.001 298.199 315.801 298.319 316.801 298.639C318.761 299.199 321.641 300.359 324.561 302.679C326.041 303.839 327.481 305.279 328.801 307.079C330.081 308.839 331.241 310.959 332.001 313.279C332.801 315.639 333.241 318.239 333.201 320.959C333.201 323.639 332.641 326.439 331.641 329.119C330.681 331.799 329.521 334.279 328.761 336.799C327.961 339.279 327.681 341.799 328.161 344.119C328.641 346.479 329.681 348.519 330.721 350.399C331.761 352.319 332.801 354.039 333.561 355.759C335.041 359.199 335.281 362.399 334.681 364.439C334.401 365.439 334.001 366.159 333.721 366.639C333.374 367.066 333.187 367.266 333.161 367.239Z" fill="#FAFAFA"/>
<path d="M408.241 235.639C408.281 235.679 408.121 236.279 407.481 237.239C406.881 238.199 405.761 239.479 404.001 240.599C402.281 241.759 399.921 242.639 397.201 242.879C394.481 243.119 391.441 242.719 388.481 241.759C385.481 240.799 382.801 239.319 380.881 237.359C379.921 236.359 379.161 235.279 378.641 234.119C378.161 232.999 377.881 231.879 377.801 230.839C377.601 228.759 378.121 227.079 378.681 226.079C378.801 225.839 378.961 225.639 379.081 225.439C379.214 225.253 379.334 225.106 379.441 224.999C379.627 224.786 379.734 224.693 379.761 224.719C379.841 224.759 379.401 225.239 378.961 226.239C378.521 227.239 378.121 228.839 378.361 230.799C378.481 231.759 378.801 232.799 379.281 233.839C379.761 234.879 380.521 235.879 381.401 236.799C383.241 238.639 385.841 240.039 388.721 240.959C391.601 241.879 394.521 242.279 397.121 242.119C399.721 241.919 402.001 241.119 403.681 240.119C405.401 239.079 406.521 237.919 407.201 237.039C407.881 236.159 408.201 235.599 408.241 235.639Z" fill="#FAFAFA"/>
<path d="M397.32 321.72C397.294 321.72 397.254 321.64 397.2 321.48C397.147 321.32 397.08 321.093 397 320.8C396.814 320.186 396.56 319.333 396.24 318.24C395.6 315.96 394.68 312.68 393.52 308.68C391.24 300.6 388.12 289.44 384.68 277.16C383 271 381.36 265.12 379.88 259.8C379.16 257.12 378.52 254.56 378.16 252.08C377.84 249.64 377.8 247.32 378.16 245.24C378.84 241.04 380.92 238.04 382.68 236.52C383.56 235.72 384.36 235.28 384.92 235C385.187 234.893 385.4 234.8 385.56 234.72C385.72 234.666 385.8 234.64 385.8 234.64C385.84 234.72 384.52 235.08 382.8 236.64C381.08 238.2 379.08 241.12 378.44 245.28C378.12 247.32 378.16 249.64 378.52 252.04C378.84 254.48 379.52 257.04 380.24 259.68C381.72 265.04 383.36 270.88 385.08 277.04C388.48 289.36 391.56 300.52 393.8 308.6C394.92 312.64 395.8 315.88 396.4 318.16C396.694 319.28 396.92 320.16 397.08 320.8C397.16 321.066 397.214 321.293 397.24 321.48C397.294 321.64 397.32 321.72 397.32 321.72Z" fill="#2E383F"/>
<path d="M364.72 144.559C364.68 144.559 364.88 143.919 364.72 142.839C364.6 141.759 364 140.199 362.52 138.879C361.08 137.519 358.76 136.679 356.16 136.759C353.52 136.759 350.76 137.639 347.88 138.599C346.44 139.079 345 139.519 343.6 139.839C342.16 140.159 340.8 140.319 339.44 140.359C336.8 140.439 334.4 139.999 332.48 139.439C330.56 138.839 329.08 138.119 328.12 137.599C327.64 137.319 327.28 137.079 327.04 136.919C326.774 136.759 326.654 136.666 326.68 136.639C326.68 136.599 327.2 136.959 328.2 137.439C329.2 137.959 330.64 138.599 332.56 139.159C334.48 139.679 336.84 140.079 339.44 139.959C340.76 139.919 342.12 139.759 343.52 139.439C344.88 139.119 346.28 138.679 347.76 138.199C350.6 137.239 353.44 136.359 356.16 136.359C358.8 136.319 361.28 137.199 362.72 138.639C364.2 140.039 364.8 141.679 364.88 142.799C365 143.959 364.72 144.559 364.72 144.559Z" fill="#455A64"/>
<path d="M375.72 168.439C375.72 168.466 375.653 168.373 375.52 168.159C375.413 167.946 375.267 167.639 375.08 167.239C374.76 166.479 374.32 165.279 373.96 163.759C373.64 162.199 373.44 160.359 373.6 158.279C373.72 156.199 374.4 153.999 374.88 151.679C375.36 149.399 375.48 147.119 374.88 145.199C374.6 144.239 374.12 143.399 373.52 142.719C372.92 142.079 372.2 141.639 371.48 141.399C370.04 140.879 368.76 141.119 368 141.479C367.24 141.879 366.96 142.279 366.92 142.239C366.92 142.239 367.16 141.799 367.92 141.359C368.68 140.919 370.04 140.639 371.6 141.119C372.36 141.359 373.12 141.799 373.8 142.479C374.4 143.199 374.92 144.079 375.24 145.079C375.92 147.079 375.8 149.479 375.28 151.799C374.8 154.119 374.12 156.279 374 158.319C373.8 160.319 374 162.159 374.28 163.679C374.56 165.199 374.96 166.399 375.24 167.199C375.56 167.999 375.76 168.439 375.72 168.439Z" fill="#455A64"/>
<path d="M366.08 143.399C366.08 143.399 366.08 143.213 366.08 142.839C366.107 142.413 366.133 141.866 366.16 141.199C366.16 139.799 366.2 137.719 365.48 135.319C365.12 134.159 364.52 132.879 363.6 131.759C362.68 130.639 361.4 129.679 359.8 129.279C358.24 128.839 356.48 128.999 354.76 129.479C353.04 129.959 351.36 130.799 349.68 131.759C348 132.719 346.36 133.679 344.68 134.359C342.96 134.999 341.16 135.359 339.48 135.399C337.8 135.439 336.2 135.199 334.76 134.799C333.32 134.399 332.04 133.839 330.92 133.239C328.68 131.959 327.24 130.439 326.36 129.319C325.92 128.799 325.6 128.319 325.44 127.999C325.253 127.679 325.16 127.506 325.16 127.479C325.187 127.479 325.307 127.639 325.52 127.959C325.72 128.239 326 128.719 326.48 129.239C327.4 130.319 328.84 131.759 331.04 132.959C332.16 133.559 333.44 134.079 334.84 134.479C336.28 134.839 337.84 135.039 339.48 134.999C341.12 134.959 342.84 134.599 344.52 133.959C346.2 133.319 347.8 132.359 349.48 131.399C351.16 130.439 352.84 129.559 354.64 129.079C356.4 128.599 358.24 128.439 359.92 128.879C361.6 129.319 362.92 130.359 363.88 131.559C364.84 132.719 365.44 134.039 365.76 135.239C366.48 137.719 366.36 139.799 366.32 141.199C366.28 141.919 366.2 142.479 366.16 142.839C366.133 143.213 366.107 143.399 366.08 143.399Z" fill="#455A64"/>
<path d="M344.961 343.439L404.761 334.519L403.801 329.199H436.001L436.961 337.399C439.881 352.559 428.361 366.639 412.881 366.799L343.121 366.039L344.961 343.439Z" fill="#FEC6D0"/>
<path d="M349.281 344.48C348.961 344.56 344.921 342.76 341.321 341.08C337.481 339.32 333.281 338.519 329.041 338.719L312.441 339.56C312.441 339.56 313.441 342.32 315.201 343.28C316.961 344.28 327.321 344.48 327.321 344.48L326.801 344.999C324.601 347.279 321.641 348.559 318.521 348.639L316.921 348.68C315.747 348.573 314.587 348.346 313.441 347.999L309.361 346.36C308.121 345.8 306.801 345.879 306.241 347.119C305.761 348.239 306.121 349.799 309.521 351.519C311.401 352.479 318.441 354.919 318.441 354.919C318.441 354.919 318.521 356.84 318.841 357.88C319.121 358.88 321.881 359.919 321.881 359.919C321.881 359.919 323.641 363.479 324.361 364.319C324.681 364.679 327.161 365.439 329.841 366.199C334.121 367.399 338.641 367.36 342.921 366.08L349.281 364.199V344.88" fill="#FEC6D0"/>
<path d="M326.521 357.079C326.521 357.199 324.521 357.079 322.201 356.479C319.841 355.839 318.081 354.959 318.121 354.879C318.161 354.759 320.001 355.479 322.281 356.079C324.601 356.679 326.521 356.959 326.521 357.079Z" fill="#AA6550"/>
<path d="M325.921 360.959C325.921 361.079 324.841 361.159 323.601 360.799C322.321 360.479 321.441 359.879 321.481 359.759C321.561 359.679 322.481 360.079 323.721 360.399C324.921 360.759 325.921 360.839 325.921 360.959Z" fill="#AA6550"/>
<path d="M420.601 348.48C420.521 348.48 420.121 347.32 419.161 345.56C418.681 344.68 418.041 343.68 417.241 342.64C416.441 341.6 415.441 340.52 414.321 339.48C413.201 338.48 412.001 337.64 410.881 336.92C409.761 336.24 408.681 335.72 407.761 335.36C405.921 334.6 404.721 334.32 404.721 334.24C404.721 334.2 405.041 334.24 405.601 334.36C405.881 334.44 406.201 334.52 406.601 334.64C406.961 334.76 407.401 334.88 407.881 335.08C408.841 335.4 409.921 335.92 411.081 336.6C412.241 337.28 413.441 338.16 414.601 339.16C415.761 340.24 416.721 341.32 417.561 342.4C418.321 343.48 418.961 344.52 419.401 345.44C419.641 345.88 419.801 346.28 420.001 346.68C420.161 347.04 420.281 347.36 420.361 347.64C420.521 348.16 420.601 348.44 420.601 348.48Z" fill="#AA6550"/>
<path d="M328.96 342.959C329 342.999 328.52 343.559 327.68 344.359C326.84 345.119 325.6 346.199 324.08 347.079C322.52 347.999 320.96 348.479 319.8 348.719C318.68 348.959 317.96 348.959 317.96 348.919C317.92 348.759 320.84 348.519 323.84 346.719C325.36 345.839 326.6 344.839 327.48 344.119C328.36 343.399 328.92 342.919 328.96 342.959Z" fill="#AA6550"/>
<path d="M156.88 323.96C158.28 323.96 145.96 357.08 142.8 365.52C142.44 366.48 142.2 367.28 142.2 367.28L228.44 367.44L227.44 287.2C227.44 287.147 227.44 287.093 227.44 287.04L220.2 229.6C220.16 229.04 219.72 228.56 219.2 228.44C215.76 227.52 203.44 224.32 194.04 223.96C183 223.56 167.04 225.76 167.04 225.76C167.04 225.76 152.72 227.24 144.84 230.08C144.2 230.32 143.8 230.96 143.92 231.6L156.88 323.96Z" fill="#F9A828"/>
<path d="M196.68 288.4C196.72 288.4 196.56 288.8 196.28 289.44C196.12 289.76 195.92 290.16 195.64 290.64C195.4 291.08 195.12 291.6 194.76 292.12C194.4 292.68 193.96 293.24 193.48 293.84C193.04 294.44 192.44 295.04 191.88 295.68C190.64 296.88 189.2 298.12 187.56 299.24C185.88 300.32 184.16 301.16 182.56 301.76C181.72 302.04 180.96 302.36 180.24 302.52C179.48 302.76 178.8 302.88 178.16 303C177.52 303.12 176.92 303.16 176.4 303.24C175.88 303.32 175.44 303.32 175.08 303.32C174.36 303.32 173.96 303.32 173.96 303.28C173.96 303.2 175.56 303.2 178.08 302.72C178.72 302.56 179.4 302.44 180.12 302.2C180.88 302 181.6 301.72 182.4 301.4C184 300.76 185.68 299.96 187.32 298.88C188.96 297.8 190.36 296.6 191.6 295.4C192.16 294.8 192.76 294.2 193.2 293.6C193.72 293.04 194.12 292.48 194.52 291.96C195.96 289.84 196.6 288.36 196.68 288.4Z" fill="#2E383F"/>
<g opacity="0.2">
<path d="M145.12 359.28C153.28 362.76 162.68 361.4 169.88 356.2C173 353.92 175.6 350.96 178.96 349.08C183.6 346.52 189.16 346.24 194.48 345.88C201.6 345.36 208.76 344.48 215.44 342C216.8 341.52 218.2 340.92 219.12 339.8C220.04 338.68 220.36 336.92 219.44 335.8C218.52 334.64 216.84 334.6 215.36 334.64C193.04 335.28 172.64 337.08 150.96 342.24" fill="#2E383F"/>
</g>
<path d="M169.16 141.4C176.08 134.4 186.96 130.24 195.96 134.2C202 136.84 206.12 142.52 211.44 146.44C215.32 149.32 220.12 151.52 222.12 155.92C223.92 159.76 223.08 164.24 222.64 168.48C222.2 172.68 222.52 177.56 225.76 180.28C227.48 181.68 229.76 182.24 231.68 183.36C235.6 185.6 237.88 189.92 238.72 194.36C239.56 198.76 239.12 203.28 238.68 207.76L220.08 211.32L217.04 206.16L216 214.24L192.28 216.36L169.16 141.4Z" fill="#2E383F"/>
<path d="M166.12 149.08L166.08 154.24L164.6 231.68C164.48 240.64 173.08 248.28 182.68 248.36C192.4 248.44 196.36 241.12 196.64 232.08C196.92 222.56 197.4 212.52 197.4 212.52C197.4 212.52 209.72 210.84 212.68 194.92C214.16 187 214.12 173.96 213.76 163.28C213.4 153.64 205.16 146.24 195.56 147L166.12 149.08Z" fill="#FEC6D0"/>
<path d="M209.52 173.56C209.56 174.64 208.64 175.52 207.52 175.56C206.36 175.6 205.44 174.76 205.44 173.64C205.44 172.56 206.36 171.68 207.48 171.64C208.6 171.6 209.52 172.48 209.52 173.56Z" fill="#2E383F"/>
<path d="M210.76 169.96C210.48 170.24 208.96 169.04 206.76 169C204.56 168.88 202.88 170 202.68 169.72C202.56 169.6 202.84 169.12 203.56 168.6C204.24 168.12 205.44 167.64 206.84 167.72C208.2 167.76 209.32 168.28 210 168.84C210.64 169.36 210.88 169.84 210.76 169.96Z" fill="#2E383F"/>
<path d="M187.8 173.56C187.8 174.64 186.88 175.52 185.76 175.56C184.64 175.6 183.72 174.76 183.68 173.64C183.68 172.56 184.6 171.68 185.72 171.64C186.88 171.6 187.8 172.48 187.8 173.56Z" fill="#2E383F"/>
<path d="M189.039 169.8C188.759 170.04 187.239 168.84 185.039 168.8C182.839 168.72 181.199 169.8 180.959 169.52C180.839 169.4 181.119 168.92 181.839 168.44C182.519 167.92 183.719 167.48 185.119 167.52C186.479 167.56 187.639 168.08 188.279 168.64C188.959 169.16 189.159 169.68 189.039 169.8Z" fill="#2E383F"/>
<path d="M196.6 186.36C196.6 186.24 197.96 186.04 200.2 185.84C200.76 185.8 201.28 185.68 201.4 185.32C201.56 184.88 201.32 184.28 201.08 183.64C200.573 182.253 200.053 180.8 199.52 179.28C197.36 173.12 195.84 168.04 196.08 167.96C196.32 167.88 198.28 172.8 200.44 179C200.946 180.52 201.44 181.973 201.92 183.36C202.12 184 202.44 184.72 202.12 185.56C201.96 185.96 201.56 186.28 201.2 186.36C200.84 186.48 200.52 186.44 200.24 186.48C198 186.52 196.6 186.48 196.6 186.36Z" fill="#2E383F"/>
<path d="M195.52 191.68C194.76 190.6 193.36 190 192 190.08C191.04 190.16 190.04 190.6 189.44 191.36C188.84 192.12 188.68 193.24 189.2 194C189.76 194.84 191 195.08 192.08 194.8C193.12 194.52 194.04 193.88 194.92 193.2C195.16 193 195.44 192.84 195.6 192.56C195.76 192.32 195.8 191.96 195.6 191.76" fill="white"/>
<path d="M190.04 187.72C190.4 187.72 190.36 190.12 192.36 191.88C194.36 193.64 196.92 193.44 196.92 193.76C196.96 193.92 196.36 194.2 195.28 194.2C194.2 194.2 192.68 193.84 191.44 192.76C190.24 191.68 189.72 190.28 189.68 189.28C189.6 188.28 189.88 187.72 190.04 187.72Z" fill="#2E383F"/>
<path d="M189.719 163.36C189.479 163.96 187.319 163.6 184.719 163.84C182.119 164.04 180 164.72 179.68 164.2C179.52 163.92 179.879 163.36 180.759 162.8C181.599 162.28 182.959 161.76 184.519 161.6C186.079 161.48 187.479 161.76 188.439 162.2C189.359 162.6 189.839 163.08 189.719 163.36Z" fill="#2E383F"/>
<path d="M210.84 165.52C210.32 166 208.52 165.44 206.28 165.32C204.04 165.2 202.16 165.56 201.72 165.04C201.56 164.76 201.88 164.28 202.72 163.84C203.52 163.36 204.88 163.04 206.44 163.12C207.96 163.2 209.28 163.68 210.04 164.2C210.8 164.76 211.04 165.28 210.84 165.52Z" fill="#2E383F"/>
<path d="M149.6 228.6C149.6 228.6 123.88 234.64 118.88 259.04C116.6 270.24 113.36 334.64 128.36 344.64C147.72 357.52 172.32 345.8 172.32 345.8L169.16 314.64H153.2L151.04 280.56C151.64 283.16 149.6 228.6 149.6 228.6Z" fill="#F9A828"/>
<path d="M241.12 335.76C246.12 335.24 250.88 332.76 254.16 329C257.44 325.2 259.2 320.12 258.96 315.12L248.44 270.44C248.44 270.44 241.64 232.12 220.08 228.68L227.44 287.12L226.72 299.4C226.72 299.4 227.08 307.56 227.88 322.84L241.12 335.76Z" fill="#F9A828"/>
<path d="M243.92 307.84C243.92 307.92 242.4 307.76 240.04 308.24C237.68 308.72 234.48 310.04 231.92 312.68C229.32 315.28 228.08 318.52 227.68 320.88C227.2 323.24 227.4 324.76 227.32 324.76C227.28 324.76 227.24 324.4 227.2 323.72C227.16 323.04 227.2 322.04 227.36 320.8C227.72 318.4 228.96 315.08 231.6 312.36C234.28 309.68 237.56 308.36 239.96 307.96C241.16 307.76 242.16 307.72 242.84 307.72C243.52 307.76 243.92 307.8 243.92 307.84Z" fill="#2E383F"/>
<path d="M177.52 139.64C180.44 143.52 181.8 146.48 183.52 153.4C184.4 156.8 181.64 159.2 178.88 161.28C177.6 162.24 175.76 161.56 175.4 160C175.4 160 176.36 170.6 172.52 175.32C170.72 177.56 170.64 180.44 171.08 182.84C171.52 185.28 172.8 187.52 174.52 189.32C178.96 194 180.2 201.6 177.12 207.32C176.32 208.8 175.32 210.16 174.68 211.68C174.32 212.56 174.12 213.56 174.16 214.52C174.24 215.68 173.44 216.72 172.28 216.88C159.12 218.76 145.76 219.16 132.52 218.08C131.6 218 130.8 217.32 130.56 216.4C129.52 212.04 131.28 207.24 133.48 203.2C135.96 198.68 139.12 194.32 139.96 189.24C140.76 184.48 139.48 179.32 141.4 174.88C143.76 169.4 150.16 166.84 153.36 161.8C156.4 157.08 156.16 150.88 158.88 145.96C162.36 139.64 170.92 136.72 177.52 139.64Z" fill="#2E383F"/>
<path d="M178.281 145.48C183.281 148.08 185.641 154.24 190.521 157.08C194.961 159.68 200.521 159 205.601 158.24C205.414 157.093 205.227 155.96 205.041 154.84C205.561 155.84 206.081 156.84 206.921 157.56C207.761 158.32 209.001 158.72 210.041 158.32C211.721 157.64 211.961 155.28 211.521 153.48C210.841 150.6 209.161 148.04 207.081 145.96C203.321 142.12 198.161 139.72 192.801 139.28C187.441 138.88 181.961 140.4 177.641 143.6" fill="#2E383F"/>
<path d="M225.44 259.36C225.467 259.36 225.48 259.574 225.48 260C225.507 260.454 225.534 261.054 225.56 261.8C225.56 263.36 225.64 265.64 225.76 268.44C226 274 226.52 281.72 227.16 290.24C227.8 298.76 228.28 306.52 228.4 312.12C228.48 314.92 228.52 317.16 228.52 318.72C228.52 319.494 228.507 320.094 228.48 320.52C228.48 320.947 228.467 321.16 228.44 321.16C228.44 321.16 228.427 320.947 228.4 320.52C228.4 320.094 228.387 319.494 228.36 318.72C228.32 317.16 228.24 314.92 228.12 312.12C227.88 306.52 227.36 298.8 226.76 290.28C226.12 281.76 225.64 274.04 225.48 268.44C225.4 265.64 225.36 263.36 225.4 261.8C225.4 261.054 225.4 260.454 225.4 260C225.427 259.574 225.44 259.36 225.44 259.36Z" fill="#2E383F"/>
<path d="M153.2 314.64C153.174 314.64 153.147 314.493 153.12 314.2C153.12 313.853 153.094 313.426 153.04 312.92C153 311.76 152.88 310.16 152.8 308.2C152.56 304.2 152.2 298.72 151.8 292.6C151.36 286.56 151 281.08 150.72 277.04C150.6 275.08 150.48 273.48 150.4 272.32C150.374 271.813 150.347 271.386 150.32 271.04C150.32 270.746 150.334 270.6 150.36 270.6C150.36 270.6 150.374 270.746 150.4 271.04C150.454 271.36 150.507 271.786 150.56 272.32C150.68 273.48 150.84 275.08 151 277.04C151.36 281 151.8 286.52 152.2 292.6C152.64 298.68 152.92 304.2 153.08 308.2C153.16 310.2 153.2 311.8 153.2 312.92C153.2 313.426 153.2 313.853 153.2 314.2C153.2 314.493 153.2 314.64 153.2 314.64Z" fill="#2E383F"/>
<path d="M153.2 314.64C153.2 314.72 152.36 314.76 151.08 315.2C149.84 315.6 148.2 316.48 146.88 318.04C145.56 319.6 145 321.36 144.8 322.68C144.6 324 144.68 324.84 144.6 324.84C144.6 324.84 144.52 324.64 144.48 324.24C144.44 323.88 144.44 323.32 144.48 322.64C144.6 321.28 145.2 319.4 146.56 317.76C147.92 316.16 149.72 315.28 151 314.92C151.68 314.72 152.24 314.64 152.6 314.64C153 314.6 153.2 314.64 153.2 314.64Z" fill="#2E383F"/>
<path d="M172.32 345.799C172.32 345.799 172.294 345.626 172.24 345.279C172.187 344.933 172.12 344.466 172.04 343.879C171.92 342.599 171.72 340.799 171.44 338.639C171 334.159 170.36 328.079 169.64 321.359C169.4 319.039 169.16 316.759 168.96 314.679L169.16 314.839C164.04 314.839 159.6 314.799 156.36 314.759C154.84 314.759 153.56 314.719 152.64 314.719C152.24 314.719 151.92 314.706 151.68 314.679C151.44 314.679 151.32 314.666 151.32 314.639C151.32 314.639 151.44 314.626 151.68 314.599C151.92 314.599 152.24 314.599 152.64 314.599C153.56 314.559 154.84 314.559 156.36 314.519C159.6 314.519 164.04 314.479 169.16 314.439H169.36V314.639C169.6 316.719 169.8 318.999 170.04 321.319C170.72 328.039 171.32 334.159 171.76 338.599C171.92 340.799 172.08 342.559 172.2 343.839C172.254 344.426 172.294 344.906 172.32 345.279C172.347 345.626 172.347 345.799 172.32 345.799Z" fill="#2E383F"/>
<path d="M172.32 345.8C172.32 345.8 172.12 345.867 171.72 346C171.294 346.16 170.707 346.347 169.96 346.56C168.44 347.04 166.24 347.72 163.44 348.44C160.68 349.2 157.36 350 153.6 350.52C149.84 351.08 145.6 350.84 141.32 349.92C139.16 349.48 137.12 348.88 135.16 348.2C134.174 347.854 133.227 347.494 132.32 347.12C131.84 346.92 131.4 346.72 130.96 346.48L130.32 346.16L129.68 345.76C128.08 344.72 126.84 343.36 125.84 342C124.84 340.6 124.08 339.24 123.48 337.92C122.24 335.32 121.52 333.12 121.04 331.6C120.8 330.827 120.627 330.24 120.52 329.84C120.414 329.414 120.36 329.2 120.36 329.2C120.387 329.2 120.467 329.4 120.6 329.8C120.76 330.227 120.96 330.814 121.2 331.56C121.72 333.04 122.48 335.24 123.72 337.8C124.36 339.08 125.12 340.44 126.12 341.8C127.12 343.12 128.36 344.44 129.92 345.44L130.52 345.84L131.12 346.16C131.56 346.36 132 346.56 132.48 346.72C133.387 347.094 134.32 347.454 135.28 347.8C137.24 348.48 139.28 349.04 141.4 349.52C145.64 350.44 149.84 350.68 153.56 350.12C157.28 349.64 160.6 348.88 163.4 348.16C166.16 347.48 168.36 346.84 169.92 346.4C170.667 346.214 171.254 346.054 171.68 345.92C172.107 345.814 172.32 345.774 172.32 345.8Z" fill="#2E383F"/>
<path d="M158.76 158.56C160.4 154.88 159.32 150.2 156.4 147.4C153.48 144.56 148.96 143.68 145.08 144.92C143.36 145.48 141.72 146.48 140.68 147.96C138.72 150.68 139.08 154.64 141.12 157.32C143.12 159.96 146.52 161.36 149.84 161.56C153.2 161.76 156.52 160.84 159.6 159.56" fill="#2E383F"/>
<path d="M185.36 285.44C190.96 290.08 204.12 301 204.12 301L211.48 299.68L189.16 280.88C187.96 279.88 186.16 280 185.08 281.12C183.92 282.36 184.04 284.36 185.36 285.44Z" fill="#455A64"/>
<path d="M184.76 283.04L181.88 280.44C181.28 279.92 181.24 279.04 181.72 278.48C182.24 277.88 183.16 277.8 183.76 278.36L186.56 280.92L184.76 283.04Z" fill="#455A64"/>
<path d="M193.4 284.48C193.48 284.56 192.68 285.52 191.6 286.68C190.52 287.8 189.56 288.64 189.48 288.6C189.4 288.52 190.2 287.52 191.28 286.36C192.36 285.24 193.32 284.4 193.4 284.48Z" fill="#2E383F"/>
<path d="M193.6 293.68C193.6 293.72 192.72 293.16 191.4 292.2C190.04 291.24 188.24 289.84 186.36 288.2C185.44 287.4 184.48 286.56 184 285.48C183.56 284.44 183.64 283.36 183.92 282.56C184.24 281.76 184.76 281.24 185.12 280.96C185.48 280.68 185.76 280.6 185.76 280.64C185.76 280.64 185.56 280.8 185.24 281.08C184.92 281.4 184.48 281.92 184.2 282.68C183.96 283.4 183.92 284.4 184.36 285.36C184.8 286.28 185.68 287.08 186.64 287.88C188.52 289.52 190.28 290.96 191.56 291.96C192.84 293 193.64 293.6 193.6 293.68Z" fill="#2E383F"/>
<path d="M169.4 317.159C174.72 315.359 180.36 316.559 185.68 314.799C187.44 314.199 189.28 313.559 190.68 312.319C192.36 310.799 193.24 308.599 194.56 306.799C198.6 301.399 206.08 300.279 212.8 299.599C214.36 299.439 215.96 299.279 217.48 299.639C219 300.039 220.44 301.079 220.88 302.599C221.32 304.119 220.32 305.999 218.76 306.159C220.24 306.239 221.28 307.719 221.52 309.159C221.8 310.599 221.56 312.079 221.76 313.559C222.04 315.599 223.16 317.519 223.08 319.559C223 322.399 220.64 324.719 218.04 325.799C215.44 326.919 212.56 327.039 209.76 327.439C196 329.359 185.56 337.159 172.32 343.079" fill="#FEC6D0"/>
<path d="M221.68 311.04C222.12 312 223.52 312.2 224.36 311.6C225.24 311 225.56 309.84 225.4 308.8C225.24 307.76 224.68 306.84 224.08 306C222.96 304.44 221.6 303.12 220.24 301.76L216 305.32L221.68 311.04Z" fill="#FEC6D0"/>
<path d="M220.081 306.399C220.081 306.519 217.481 306.319 214.361 306.799C211.201 307.279 208.761 308.239 208.721 308.119C208.721 308.079 209.281 307.759 210.281 307.399C211.281 307.039 212.681 306.639 214.281 306.399C215.881 306.159 217.361 306.119 218.401 306.159C219.441 306.239 220.121 306.359 220.081 306.399Z" fill="#EB996E"/>
<path d="M221.961 314.719C221.961 314.879 219.801 314.399 217.081 314.479C214.401 314.559 212.241 315.119 212.241 314.959C212.201 314.879 214.321 314.119 217.081 314.079C219.841 313.999 222.001 314.639 221.961 314.719Z" fill="#EB996E"/>
<path d="M221.52 312.279C221.44 312.279 221.52 311.639 221.4 310.679C221.28 309.719 220.92 308.359 220.12 307.119C219.934 306.852 219.747 306.599 219.56 306.359L219.44 306.239L219.56 306.079C220.48 305.239 220.72 304.039 220.68 303.279C220.68 302.479 220.44 302.039 220.52 301.999C220.52 301.999 220.84 302.399 220.96 303.279C221.04 304.079 220.84 305.399 219.88 306.399V306.119C220.094 306.359 220.294 306.612 220.48 306.879C221.32 308.199 221.64 309.639 221.68 310.639C221.72 311.679 221.56 312.279 221.52 312.279Z" fill="#EB996E"/>
<path d="M221.681 310.6L228.641 317.16L229.521 321.04L223.081 319.56C222.161 316.28 221.481 313.16 221.681 310.6Z" fill="#455A64"/>
<path d="M212.241 318.92C212.081 319.2 174.561 337.68 174.561 337.68V341.68L212.841 321.76L260.361 319.96V317.16L212.241 318.92Z" fill="#F5F5F5"/>
<path d="M174.561 342.24C174.841 342.08 216.001 338.36 216.001 338.36L260.361 319.96L212.841 321.76L174.561 341.68V342.24Z" fill="#2E383F"/>
<path d="M213.96 332.4C213.64 330.24 215.72 328.4 217.8 327.8C219.92 327.24 222.16 327.48 224.28 326.96C225.64 326.68 226.92 326.08 228.24 325.56C234.8 323.04 242 322.92 249.04 322.84C249.88 324.68 249.16 327.16 247.44 328.28C248.08 329.96 247.88 331.88 247.2 333.56C246.56 335.2 245.44 336.68 244.28 338.04C243.28 339.2 242.2 340.36 240.8 340.96C239.44 341.56 237.88 341.6 236.36 341.64C231.64 341.72 226.6 341.76 222.68 339.08C219.68 337.04 217.56 333.48 214.04 332.44C214.333 332.467 214.613 332.48 214.88 332.48" fill="#FEC6D0"/>
<path d="M245.4 329.76C245.4 329.8 245.08 329.84 244.52 329.88C243.854 329.88 243.027 329.906 242.04 329.96C239.96 330 237.08 330.04 233.92 330.04C232.36 330.04 230.84 330.04 229.44 330.04C228.76 330.04 228.08 329.96 227.48 329.76C226.88 329.52 226.36 329.16 226.04 328.68C225.72 328.24 225.6 327.72 225.68 327.28C225.76 326.84 225.96 326.52 226.16 326.28C226.64 325.88 227.04 325.92 227 325.96C227.04 326 226.64 326 226.28 326.4C225.92 326.8 225.64 327.72 226.28 328.52C226.56 328.92 227.04 329.24 227.6 329.4C228.16 329.6 228.76 329.64 229.44 329.64C230.84 329.64 232.36 329.64 233.92 329.64C237.08 329.6 239.96 329.6 242.04 329.64C243.027 329.666 243.854 329.68 244.52 329.68C245.08 329.72 245.4 329.76 245.4 329.76Z" fill="#EB996E"/>
<path d="M243 333.72C243 333.76 242.6 333.84 241.88 333.96C241.12 334.08 240.08 334.2 238.76 334.36C237.4 334.48 235.84 334.56 234.08 334.44C232.28 334.36 230.4 333.96 228.4 333.52C224.48 332.56 220.84 332.24 218.2 332.24C216.88 332.24 215.8 332.28 215.08 332.32C214.32 332.36 213.92 332.4 213.92 332.36C213.92 332.36 214.32 332.28 215.04 332.16C215.8 332.08 216.88 332 218.2 331.96C220.84 331.88 224.56 332.12 228.52 333.08C230.48 333.56 232.36 333.96 234.08 334.08C235.84 334.2 237.4 334.12 238.72 334.04C240.04 333.96 241.12 333.84 241.84 333.8C242.6 333.72 243 333.68 243 333.72Z" fill="#EB996E"/>
<path d="M239.08 337.96C239.08 337.96 238.76 338.04 238.2 338.12C237.64 338.2 236.8 338.28 235.76 338.4C233.72 338.56 230.84 338.72 227.72 338.12C224.56 337.52 222.08 335.92 220.2 335.16C218.32 334.36 217.04 334.28 217.04 334.2C217.04 334.16 217.36 334.16 217.96 334.24C218.52 334.32 219.36 334.52 220.32 334.88C222.28 335.6 224.72 337.12 227.8 337.72C230.84 338.32 233.72 338.16 235.76 338.08C236.72 338.027 237.52 337.987 238.16 337.96C238.76 337.92 239.08 337.92 239.08 337.96Z" fill="#EB996E"/>
<g opacity="0.2">
<path d="M228.44 316.48C228.84 313.56 229.48 310.64 230.76 308.04C232.08 305.4 234.16 303.04 236.8 301.84C239.48 300.64 242.8 300.68 245.24 302.36C245.96 302.88 246.6 303.52 246.92 304.36C247.2 305.2 247.12 306.2 246.48 306.84C245.6 307.8 244.12 307.64 242.84 307.56C236.96 307.32 231.08 310.84 228.56 316.16" fill="#2E383F"/>
</g>
<g opacity="0.2">
<path d="M158.96 314.04C162.16 308.32 161 301.12 158.56 295.04C156.12 288.96 152.48 283.36 150.64 277.08C150.28 289.76 152.16 302.56 156.12 314.64" fill="#2E383F"/>
</g>
<path d="M164.6 226.319C164.6 226.319 168.48 235.439 182.48 234.879C196.48 234.279 196.92 223.439 196.92 223.439L206.28 233.399L197.4 251.719L185.44 260.639L169.16 253.959L155.76 243.519L164.6 226.319Z" fill="#F9A828"/>
<g opacity="0.5">
<path d="M131.8 265.4C131.96 265.56 130.12 267.28 127.72 269.2C125.32 271.12 123.28 272.56 123.12 272.36C122.96 272.2 124.8 270.48 127.2 268.56C129.6 266.64 131.68 265.2 131.8 265.4Z" fill="#FAFAFA"/>
</g>
<path d="M138.36 255.519C138.32 255.719 136.08 255.119 133.72 253.639C131.32 252.159 129.76 250.479 129.92 250.319C130.08 250.159 131.8 251.519 134.12 252.919C136.44 254.359 138.48 255.319 138.36 255.519Z" fill="#FAFAFA"/>
<path d="M150.4 256.6C150.6 256.76 148.84 259.32 146.8 262.56C144.8 265.84 143.28 268.56 143.08 268.44C142.88 268.36 144.04 265.44 146.12 262.12C148.16 258.84 150.24 256.44 150.4 256.6Z" fill="#FAFAFA"/>
<path d="M140.12 284.4C139.96 284.56 138.12 282.64 136.52 279.88C134.88 277.08 134.16 274.52 134.36 274.48C134.6 274.36 135.64 276.72 137.24 279.44C138.8 282.16 140.32 284.24 140.12 284.4Z" fill="#FAFAFA"/>
<path d="M129.4 297.84C129.16 297.88 128.68 295.84 128.36 293.32C128 290.76 127.92 288.68 128.12 288.64C128.36 288.6 128.84 290.64 129.16 293.2C129.52 295.72 129.64 297.8 129.4 297.84Z" fill="#FAFAFA"/>
<g opacity="0.5">
<path d="M139.521 301.52C139.321 301.4 140.321 299.24 141.801 296.72C143.281 294.2 144.601 292.24 144.801 292.36C145.001 292.48 144.001 294.6 142.521 297.16C141.041 299.68 139.721 301.64 139.521 301.52Z" fill="#FAFAFA"/>
</g>
<path d="M127.76 315.439C127.6 315.599 125.8 313.839 124.08 311.319C122.32 308.799 121.36 306.479 121.56 306.399C121.76 306.279 123.04 308.359 124.76 310.839C126.48 313.319 127.92 315.279 127.76 315.439Z" fill="#FAFAFA"/>
<path d="M143.72 313.16C143.88 313.32 142.04 315.44 139.6 317.88C137.2 320.32 135.08 322.2 134.92 322.04C134.76 321.84 136.6 319.76 139.04 317.28C141.44 314.84 143.56 313 143.72 313.16Z" fill="#FAFAFA"/>
<g opacity="0.5">
<path d="M134.64 341.88C134.48 342.04 132.72 340.56 131.12 338.24C129.48 335.96 128.68 333.76 128.88 333.68C129.12 333.6 130.2 335.52 131.8 337.76C133.36 340.04 134.8 341.72 134.64 341.88Z" fill="#FAFAFA"/>
</g>
<path d="M155.24 336.08C155.36 336.28 153.4 337.6 150.84 339.04C148.32 340.52 146.16 341.52 146.04 341.32C145.92 341.12 147.88 339.8 150.44 338.32C152.96 336.88 155.12 335.88 155.24 336.08Z" fill="#FAFAFA"/>
<path d="M163.28 329.44C163.12 329.6 161.24 328.2 159.56 325.88C157.88 323.56 157.08 321.32 157.28 321.24C157.48 321.16 158.6 323.12 160.24 325.36C161.88 327.6 163.44 329.28 163.28 329.44Z" fill="#FAFAFA"/>
<path d="M177.4 283.36C177.56 283.56 175.44 285.4 172.68 287.44C169.92 289.48 167.6 291 167.44 290.84C167.32 290.64 169.44 288.84 172.2 286.76C174.92 284.72 177.28 283.2 177.4 283.36Z" fill="#FAFAFA"/>
<path d="M162.52 282.4C162.28 282.4 162.32 280.2 162.6 277.52C162.84 274.84 163.28 272.68 163.48 272.72C163.72 272.72 163.68 274.92 163.4 277.6C163.12 280.28 162.72 282.44 162.52 282.4Z" fill="#FAFAFA"/>
<g opacity="0.5">
<path d="M176.24 263.68C176.12 263.84 173.64 262.32 170.92 260C168.2 257.68 166.32 255.48 166.48 255.32C166.64 255.16 168.76 257.08 171.48 259.36C174.16 261.68 176.4 263.48 176.24 263.68Z" fill="#FAFAFA"/>
</g>
<path d="M165.92 240.28C166.12 240.44 164.36 242.8 162.04 245.56C159.68 248.32 157.64 250.4 157.48 250.28C157.32 250.12 159.04 247.76 161.4 245C163.72 242.28 165.76 240.16 165.92 240.28Z" fill="#FAFAFA"/>
<g opacity="0.5">
<path d="M154.08 237.8C153.96 238 152.2 237.08 149.84 236.32C147.52 235.52 145.56 235.16 145.6 234.92C145.6 234.68 147.68 234.68 150.12 235.52C152.56 236.32 154.2 237.6 154.08 237.8Z" fill="#FAFAFA"/>
</g>
<path d="M184.16 248.56C183.96 248.52 184.32 246.56 185 244.24C185.72 241.88 186.44 240.04 186.64 240.12C186.88 240.16 186.52 242.12 185.8 244.44C185.12 246.8 184.4 248.64 184.16 248.56Z" fill="#FAFAFA"/>
<path d="M191.36 267C191.12 266.96 191.04 265.08 191.2 262.72C191.32 260.4 191.6 258.52 191.84 258.52C192.08 258.52 192.16 260.44 192 262.76C191.88 265.12 191.6 267 191.36 267Z" fill="#FAFAFA"/>
<path d="M203.16 280.8C203.04 281 201.28 279.8 199.28 278.2C197.24 276.56 195.72 275.12 195.88 274.92C196 274.76 197.76 275.92 199.8 277.56C201.8 279.16 203.32 280.64 203.16 280.8Z" fill="#FAFAFA"/>
<path d="M215.76 261.52C215.92 261.68 214.36 263.32 212.28 265.16C210.2 266.96 208.4 268.32 208.24 268.16C208.08 268 209.64 266.36 211.72 264.52C213.8 262.68 215.6 261.32 215.76 261.52Z" fill="#FAFAFA"/>
<g opacity="0.5">
<path d="M210 252.4C209.84 252.6 207.88 251.52 205.76 249.72C203.6 247.96 202.2 246.24 202.36 246.08C202.52 245.92 204.2 247.36 206.28 249.08C208.36 250.84 210.12 252.2 210 252.4Z" fill="#FAFAFA"/>
</g>
<path d="M224.521 236.16C224.721 236.28 223.761 237.96 222.041 239.56C220.321 241.16 218.601 242.04 218.481 241.84C218.361 241.64 219.801 240.48 221.441 238.96C223.121 237.4 224.321 236.04 224.521 236.16Z" fill="#FAFAFA"/>
<g opacity="0.5">
<path d="M214.521 234.64C214.481 234.88 211.961 234.68 208.881 233.92C205.841 233.12 203.521 232.08 203.601 231.88C203.681 231.64 206.081 232.36 209.081 233.08C212.081 233.88 214.561 234.4 214.521 234.64Z" fill="#FAFAFA"/>
</g>
<g opacity="0.5">
<path d="M233.12 260.48C232.88 260.44 233.4 257.32 234.52 253.6C235.68 249.88 237 247 237.2 247.08C237.44 247.16 236.44 250.16 235.32 253.84C234.2 257.52 233.32 260.56 233.12 260.48Z" fill="#FAFAFA"/>
</g>
<path d="M237.241 278.16C237.041 278.28 235.081 276.48 232.801 274.08C230.561 271.68 228.841 269.6 229.001 269.44C229.161 269.28 231.161 271.08 233.401 273.52C235.681 275.92 237.401 278 237.241 278.16Z" fill="#FAFAFA"/>
<g opacity="0.5">
<path d="M243.6 288.119C243.36 288.119 243.24 285.519 243.28 282.279C243.32 279.039 243.56 276.439 243.8 276.439C244.04 276.439 244.16 279.079 244.12 282.279C244.04 285.519 243.84 288.159 243.6 288.119Z" fill="#FAFAFA"/>
</g>
<path d="M237.12 304.6C236.96 304.72 235.24 302.64 233.64 299.72C232.04 296.76 231.24 294.2 231.44 294.12C231.68 294.04 232.8 296.44 234.4 299.32C235.92 302.2 237.32 304.48 237.12 304.6Z" fill="#FAFAFA"/>
<path d="M253.64 307.6C253.8 307.76 252.72 309.12 251.16 310.6C249.64 312.12 248.28 313.16 248.12 313C247.96 312.84 249.08 311.52 250.6 310C252.12 308.52 253.48 307.44 253.64 307.6Z" fill="#FAFAFA"/>
<g opacity="0.5">
<path d="M213.44 288.839C213.2 288.799 213.96 286.159 215.84 283.439C217.72 280.679 219.92 279.079 220.04 279.239C220.2 279.399 218.36 281.239 216.52 283.919C214.72 286.519 213.64 288.919 213.44 288.839Z" fill="#FAFAFA"/>
</g>
<path d="M166.761 310.8C166.561 310.72 166.961 308.36 167.641 305.48C168.361 302.6 169.121 300.32 169.361 300.36C169.561 300.4 169.161 302.8 168.481 305.68C167.761 308.56 167.001 310.84 166.761 310.8Z" fill="#FAFAFA"/>
<path d="M186.44 312.76C186.28 312.96 184.32 311.88 181.96 310.36C179.64 308.84 177.84 307.44 178 307.24C178.12 307.04 180.08 308.12 182.44 309.64C184.76 311.16 186.56 312.56 186.44 312.76Z" fill="#FAFAFA"/>
<path d="M185.44 298.56C185.24 298.72 184.32 297.64 183.36 296.2C182.4 294.76 181.76 293.48 181.96 293.36C182.12 293.24 183.08 294.28 184.04 295.72C185 297.16 185.64 298.44 185.44 298.56Z" fill="#FAFAFA"/>
<path d="M194.12 301.8C194.24 302 193.4 302.8 192.24 303.64C191.04 304.44 190 304.96 189.88 304.8C189.72 304.6 190.56 303.76 191.76 302.96C192.92 302.12 193.96 301.6 194.12 301.8Z" fill="#FAFAFA"/>
<g opacity="0.5">
<path d="M171.48 359.32C171.24 359.24 171.64 357.44 171.96 355.2C172.28 352.96 172.48 351.12 172.72 351.12C172.92 351.12 173.12 353 172.76 355.32C172.44 357.64 171.68 359.4 171.48 359.32Z" fill="#FAFAFA"/>
</g>
<g opacity="0.5">
<path d="M191.4 352.84C191.2 352.96 189.68 350.64 188.04 347.72C186.36 344.76 185.16 342.28 185.36 342.16C185.56 342.08 187.08 344.36 188.76 347.28C190.4 350.24 191.6 352.72 191.4 352.84Z" fill="#FAFAFA"/>
</g>
<g opacity="0.5">
<path d="M212.56 343.92C212.76 344.04 210.76 346.96 208.08 350.44C205.44 353.92 203.12 356.6 202.96 356.48C202.76 356.32 204.76 353.4 207.44 349.96C210.08 346.48 212.4 343.76 212.56 343.92Z" fill="#FAFAFA"/>
</g>
<g opacity="0.5">
<path d="M218.521 360.88C218.561 361.12 215.921 361.68 212.601 362.16C209.321 362.64 206.601 362.84 206.561 362.64C206.561 362.4 209.201 361.84 212.481 361.36C215.801 360.88 218.481 360.68 218.521 360.88Z" fill="#FAFAFA"/>
</g>
<path d="M219.44 352.32C219.2 352.28 219.4 350.56 219.48 348.48C219.6 346.4 219.52 344.68 219.76 344.64C220 344.6 220.44 346.32 220.32 348.52C220.24 350.68 219.64 352.4 219.44 352.32Z" fill="#FAFAFA"/>
<path d="M190.88 362.32C190.8 362.52 188.64 361.8 186.4 360.16C184.12 358.56 182.76 356.72 182.92 356.6C183.08 356.4 184.68 357.92 186.88 359.48C189.04 361.04 191 362.08 190.88 362.32Z" fill="#FAFAFA"/>
<path d="M156.96 361.04C156.72 361 157 359.16 157.56 356.96C158.12 354.76 158.72 353.04 158.96 353.08C159.2 353.12 158.92 354.96 158.36 357.16C157.8 359.36 157.2 361.08 156.96 361.04Z" fill="#FAFAFA"/>
<path d="M153.28 158.68C153.32 158.64 154.24 159.4 155.92 160.32C156.72 160.8 157.8 161.24 158.96 161.68C160.16 162.04 161.52 162.36 162.96 162.56C164.4 162.72 165.8 162.68 167.04 162.6C168.32 162.48 169.44 162.24 170.36 162C172.2 161.48 173.24 160.92 173.28 161C173.28 161 173.04 161.16 172.56 161.4C172.32 161.56 172 161.68 171.64 161.84C171.28 161.96 170.88 162.16 170.44 162.28C169.52 162.56 168.36 162.84 167.08 162.96C165.8 163.12 164.4 163.12 162.92 162.96C161.44 162.8 160.08 162.44 158.84 162.04C157.64 161.6 156.6 161.08 155.76 160.6C155.32 160.36 155 160.08 154.68 159.88C154.36 159.64 154.08 159.44 153.88 159.28C153.48 158.92 153.24 158.72 153.28 158.68Z" fill="#455A64"/>
<path d="M173.921 167.88C173.961 167.92 173.641 168 173.081 168.16C172.481 168.32 171.681 168.48 170.641 168.68C168.561 169.04 165.641 169.36 162.441 168.72C159.241 168.08 156.721 166.32 155.361 164.68C154.681 163.88 154.241 163.12 154.001 162.56C153.801 162.04 153.721 161.72 153.721 161.72C153.801 161.68 154.201 162.96 155.601 164.48C156.961 166.04 159.441 167.68 162.521 168.32C165.641 168.96 168.521 168.64 170.601 168.4C171.641 168.24 172.441 168.08 173.041 168C173.601 167.92 173.921 167.88 173.921 167.88Z" fill="#455A64"/>
<path d="M145.44 216.84C145.44 216.84 145.413 216.814 145.36 216.76C145.28 216.68 145.2 216.56 145.08 216.4C144.88 216.04 144.6 215.52 144.44 214.8C144.12 213.32 144.44 210.96 146.2 208.84C147.08 207.8 148.24 206.88 149.56 206C150.84 205.16 152.32 204.36 153.76 203.4C155.2 202.4 156.64 201.2 157.64 199.6C158.12 198.84 158.44 197.92 158.6 196.96C158.72 196.04 158.64 195.04 158.44 194.08C158 192.12 157.12 190.32 156.4 188.56C155.68 186.8 155.08 184.96 155.04 183.16C154.92 179.56 156.24 176.44 157.8 174.28C159.36 172.08 161.2 170.8 162.52 170.12C162.84 169.96 163.133 169.827 163.4 169.72C163.666 169.614 163.893 169.534 164.08 169.48C164.48 169.347 164.68 169.28 164.68 169.28C164.68 169.307 164.493 169.4 164.12 169.56C163.933 169.64 163.72 169.734 163.48 169.84C163.213 169.974 162.92 170.12 162.6 170.28C161.32 171 159.56 172.28 158.04 174.48C156.56 176.6 155.28 179.64 155.44 183.16C155.48 184.88 156.04 186.64 156.8 188.4C157.48 190.16 158.4 191.96 158.84 193.96C159.04 195 159.12 196.04 159 197.04C158.88 198.04 158.48 199 157.96 199.84C156.92 201.52 155.44 202.72 154 203.72C152.52 204.68 151.04 205.48 149.72 206.32C148.4 207.16 147.28 208.04 146.4 209.04C144.72 211.04 144.32 213.32 144.6 214.76C144.84 216.2 145.52 216.84 145.44 216.84Z" fill="#455A64"/>
<path d="M166.761 217.16C166.761 217.16 166.601 217.067 166.281 216.88C166.041 216.68 165.601 216.36 165.281 215.76C164.921 215.2 164.641 214.4 164.561 213.44C164.441 212.52 164.561 211.4 164.881 210.28C165.561 207.92 167.521 205.8 168.961 203.12C169.721 201.76 170.241 200.2 170.201 198.56C170.161 196.88 169.641 195.2 168.881 193.6C167.361 190.4 165.041 187.84 163.441 185.16C162.601 183.84 161.961 182.48 161.521 181.12C161.121 179.8 161.041 178.48 161.161 177.28C161.361 174.88 162.481 173.16 163.481 172.28C164.001 171.84 164.441 171.6 164.761 171.44C165.081 171.307 165.241 171.253 165.241 171.28C165.281 171.32 164.561 171.52 163.601 172.4C162.641 173.28 161.641 175 161.441 177.32C161.361 178.44 161.441 179.76 161.881 181.04C162.281 182.32 162.921 183.64 163.761 184.96C164.561 186.28 165.561 187.56 166.521 188.96C167.521 190.32 168.521 191.8 169.281 193.44C170.041 195.08 170.561 196.8 170.601 198.56C170.641 200.28 170.081 201.92 169.321 203.28C167.801 206 165.841 208.12 165.161 210.36C164.841 211.48 164.721 212.52 164.761 213.44C164.841 214.36 165.081 215.12 165.401 215.68C166.041 216.8 166.801 217.08 166.761 217.16Z" fill="#455A64"/>
<path d="M198.321 157.08C198.321 157.107 198.227 157.067 198.041 156.96C197.841 156.88 197.561 156.68 197.241 156.44C196.561 155.96 195.721 155.12 194.921 153.88C194.121 152.68 193.441 151.04 192.721 149.28C192.361 148.4 191.961 147.48 191.481 146.6C190.961 145.68 190.401 144.8 189.721 143.96C186.961 140.52 183.201 138.72 180.481 138C177.681 137.28 175.841 137.44 175.881 137.32C175.881 137.32 176.321 137.28 177.121 137.28C177.921 137.28 179.121 137.36 180.521 137.72C181.961 138.04 183.601 138.64 185.281 139.64C186.921 140.6 188.641 141.92 190.041 143.68C190.761 144.56 191.321 145.48 191.841 146.4C192.321 147.32 192.721 148.28 193.081 149.16C193.801 150.92 194.441 152.52 195.201 153.72C195.921 154.96 196.721 155.8 197.321 156.32C197.961 156.84 198.361 157.04 198.321 157.08Z" fill="#455A64"/>
<path d="M209.48 157.04C209.48 157.04 209.333 157.013 209.04 156.96C208.76 156.96 208.36 156.84 207.84 156.68C206.84 156.32 205.44 155.56 204.04 154.2C202.64 152.84 201.32 150.96 200.08 148.72C198.84 146.52 197.6 144 195.72 141.8C193.88 139.56 191.36 138.24 188.96 137.56C186.52 136.88 184.24 136.72 182.36 136.68C180.44 136.64 178.88 136.72 177.8 136.76C177.32 136.787 176.92 136.8 176.6 136.8C176.307 136.8 176.16 136.8 176.16 136.8C176.16 136.773 176.293 136.747 176.56 136.72C176.853 136.693 177.267 136.653 177.8 136.6C178.88 136.52 180.44 136.36 182.36 136.4C184.28 136.4 186.56 136.52 189.04 137.2C191.52 137.84 194.12 139.24 196.04 141.52C198 143.8 199.2 146.32 200.4 148.52C201.6 150.76 202.92 152.64 204.24 153.96C205.56 155.36 206.92 156.12 207.92 156.52C208.92 156.92 209.48 156.96 209.48 157.04Z" fill="#455A64"/>
<path d="M228.361 208.96C228.321 208.92 228.601 208.36 228.841 207.32C229.121 206.28 229.401 204.72 229.321 202.8C229.281 200.88 228.801 198.6 227.641 196.36C227.041 195.24 226.281 194.12 225.361 193.12C224.401 192.08 223.361 191.12 222.281 190.08C221.201 189.04 220.161 188.04 219.321 186.88C218.441 185.8 217.761 184.6 217.201 183.44C216.601 182.28 216.201 181.12 215.881 180C215.601 178.88 215.401 177.84 215.281 176.88C215.081 174.92 215.201 173.32 215.361 172.24C215.401 171.72 215.481 171.32 215.561 171.04C215.614 170.746 215.654 170.6 215.681 170.6C215.721 170.6 215.601 171.2 215.521 172.28C215.401 173.36 215.321 174.92 215.601 176.84C215.721 177.8 215.921 178.84 216.241 179.92C216.521 181 216.961 182.12 217.521 183.28C218.081 184.4 218.801 185.56 219.641 186.64C220.481 187.76 221.521 188.76 222.561 189.76C223.641 190.8 224.721 191.8 225.641 192.84C226.601 193.88 227.401 195 227.961 196.16C229.161 198.48 229.601 200.84 229.641 202.8C229.681 204.76 229.321 206.32 229.001 207.36C228.841 207.893 228.694 208.293 228.561 208.56C228.454 208.826 228.387 208.96 228.361 208.96Z" fill="#455A64"/>
<path d="M140.72 156.4C140.72 156.4 140.72 156.12 140.84 155.6C140.96 155.12 141.2 154.4 141.64 153.6C142.48 152 144.4 150 147.16 149.32C149.96 148.68 152.56 149.6 154.04 150.64C154.8 151.12 155.36 151.68 155.68 152.04C156 152.44 156.12 152.68 156.12 152.72C156.04 152.76 155.4 151.8 153.88 150.88C152.44 149.92 149.92 149.12 147.28 149.72C144.64 150.36 142.76 152.24 141.88 153.76C140.96 155.28 140.84 156.4 140.72 156.4Z" fill="#455A64"/>
<path d="M148.48 159.76C148.44 159.76 148.48 159.04 148.72 157.96C148.96 156.84 149.36 155.24 150.6 153.92C151.92 152.64 153.76 152.44 154.84 152.84C155.4 153.08 155.8 153.36 156 153.64C156.2 153.88 156.24 154.08 156.24 154.08C156.16 154.12 155.8 153.44 154.76 153.12C153.76 152.84 152.08 153.04 150.92 154.24C149.76 155.44 149.32 156.96 149 158C148.72 159.08 148.56 159.76 148.48 159.76Z" fill="#455A64"/>
<path d="M158.64 148.04C158.76 148.12 157.44 149.88 156.56 152.4C155.64 154.92 155.6 157.12 155.48 157.12C155.36 157.12 155.24 154.84 156.16 152.24C157.08 149.64 158.6 147.96 158.64 148.04Z" fill="#F9A828"/>
<path d="M286.64 167.56C286.64 168.92 287.76 170.04 289.12 170.04C290.52 170.04 291.6 168.92 291.6 167.56C291.6 166.16 290.52 165.04 289.12 165.04C287.76 165.04 286.64 166.16 286.64 167.56Z" fill="#455A64"/>
<path d="M276.68 167.56C276.68 168.92 277.8 170.04 279.16 170.04C280.52 170.04 281.64 168.92 281.64 167.56C281.64 166.16 280.52 165.04 279.16 165.04C277.8 165.04 276.68 166.16 276.68 167.56Z" fill="#455A64"/>
<path d="M266.72 166.28C266.04 167.48 266.44 169 267.64 169.68C268.84 170.4 270.36 169.96 271.04 168.8C271.72 167.6 271.32 166.08 270.12 165.4C268.96 164.68 267.44 165.12 266.72 166.28Z" fill="#455A64"/>
<path d="M279 138.48C279 138.454 278.84 138.44 278.52 138.44C278.146 138.467 277.653 138.48 277.04 138.48C276.72 138.52 276.32 138.52 275.92 138.56C275.52 138.614 275.093 138.667 274.64 138.72C274.16 138.8 273.653 138.88 273.12 138.96C272.586 139.094 272.013 139.227 271.4 139.36C269 140 266.12 141.04 263.16 142.96C260.2 144.88 257.12 147.56 254.64 151.28C252.2 154.96 250.28 159.6 249.8 164.84C249.76 166.16 249.6 167.48 249.72 168.84C249.76 169.52 249.76 170.2 249.84 170.88C249.946 171.547 250.053 172.227 250.16 172.92C250.72 175.64 251.52 178.44 252.92 181.04C254.28 183.64 256.08 186.12 258.24 188.32C260.44 190.48 263 192.36 265.88 193.8C268.72 195.28 271.88 196.28 275.16 196.68C276 196.84 276.84 196.84 277.64 196.88C278.48 196.92 279.32 196.96 280.16 196.92C281.84 196.88 283.52 196.64 285.2 196.28C288.8 195.52 292.2 194.04 295.2 192.08L294.88 192.12C298.373 193.507 301.773 194.867 305.08 196.2L305.68 196.44L305.52 195.84C304.48 192.08 303.48 188.44 302.52 184.92L302.48 185.2C305.32 181.4 307.16 177.04 307.92 172.72C308.28 170.6 308.44 168.44 308.32 166.36C308.28 165.32 308.2 164.28 308 163.28C307.946 162.8 307.88 162.307 307.8 161.8C307.68 161.32 307.56 160.84 307.44 160.36C305.48 152.68 300.72 147.04 296.04 143.76C293.72 142.12 291.4 140.96 289.28 140.2C288.746 140.014 288.24 139.84 287.76 139.68C287.253 139.547 286.773 139.414 286.32 139.28C285.866 139.174 285.426 139.067 285 138.96C284.56 138.88 284.16 138.84 283.76 138.8C283 138.68 282.32 138.56 281.72 138.52C281.133 138.494 280.64 138.48 280.24 138.48C279.866 138.454 279.56 138.44 279.32 138.44C279.106 138.44 279 138.454 279 138.48C279 138.48 279.106 138.494 279.32 138.52C279.56 138.52 279.866 138.534 280.24 138.56C280.64 138.587 281.133 138.627 281.72 138.68C282.32 138.72 282.96 138.88 283.76 139C286.76 139.52 291.24 140.72 295.84 144.08C300.44 147.32 305.04 152.96 306.92 160.48C307.04 160.96 307.16 161.44 307.28 161.92C307.333 162.4 307.4 162.88 307.48 163.36C307.68 164.36 307.72 165.36 307.76 166.4C307.88 168.4 307.72 170.52 307.36 172.64C306.6 176.84 304.8 181.12 301.96 184.8L301.88 184.92L301.92 185.08C302.88 188.6 303.866 192.24 304.88 196L305.32 195.6C302.013 194.267 298.626 192.907 295.16 191.52L295 191.44L294.84 191.52C291.92 193.44 288.6 194.88 285.04 195.64C283.413 195.987 281.773 196.2 280.12 196.28C279.32 196.32 278.48 196.28 277.68 196.24C276.88 196.16 276.04 196.16 275.24 196.04C272.04 195.64 268.96 194.64 266.16 193.24C263.36 191.84 260.84 190 258.68 187.88C256.56 185.72 254.8 183.32 253.48 180.76C252.08 178.2 251.28 175.48 250.72 172.8C250.613 172.134 250.506 171.467 250.4 170.8C250.32 170.12 250.32 169.48 250.28 168.8C250.16 167.48 250.28 166.16 250.32 164.88C250.8 159.76 252.64 155.2 255 151.52C257.44 147.88 260.44 145.16 263.36 143.28C266.28 141.32 269.12 140.28 271.48 139.6C272.066 139.44 272.626 139.294 273.16 139.16C273.693 139.08 274.2 139 274.68 138.92C275.133 138.84 275.56 138.774 275.96 138.72C276.36 138.68 276.72 138.64 277.04 138.64C277.653 138.587 278.146 138.547 278.52 138.52C278.84 138.494 279 138.48 279 138.48Z" fill="#455A64"/>
</svg>
